<?xml version="1.0" encoding="utf-8"?>
<!-- Generator: Adobe Illustrator 18.1.1, SVG Export Plug-In . SVG Version: 6.00 Build 0)  -->
<svg version="1.1" xmlns="http://www.w3.org/2000/svg" xmlns:xlink="http://www.w3.org/1999/xlink" x="0px" y="0px"
	 viewBox="0 0 960 270.3" enable-background="new 0 0 960 270.3" xml:space="preserve">
<g id="Layer_2">
	<rect y="0" fill="#3996F5" width="960" height="298.3"/>
	
		<radialGradient id="SVGID_1_" cx="701.928" cy="127.4166" r="153.492" gradientTransform="matrix(1.3757 0 0 1 -258.2708 0)" gradientUnits="userSpaceOnUse">
		<stop  offset="0" style="stop-color:#FFFFFF"/>
		<stop  offset="0.7025" style="stop-color:#FFFFFF;stop-opacity:0"/>
	</radialGradient>
	<ellipse fill="url(#SVGID_1_)" cx="707.3" cy="127.4" rx="245.7" ry="123.4"/>
</g>
<g id="Layer_5">
	<g opacity="0.61">
		<path fill="none" d="M696.5,134.3L696.5,134.3C696.6,134.3,696.6,134.3,696.5,134.3C696.6,134.2,696.6,134.3,696.5,134.3z"/>
		<path fill="none" d="M696.1,134.4C696.1,134.4,696.1,134.4,696.1,134.4C696.1,134.4,696.1,134.4,696.1,134.4
			C696.1,134.4,696.1,134.4,696.1,134.4c-0.2-0.2-0.3-0.1-0.3-0.1L555.4,0.3l140.3,134C695.8,134.3,695.9,134.2,696.1,134.4z"/>
		<path fill="none" d="M696.6,134.4C696.6,134.4,696.6,134.4,696.6,134.4C696.5,134.4,696.5,134.4,696.6,134.4
			C696.5,134.4,696.5,134.5,696.6,134.4C696.6,134.4,696.6,134.5,696.6,134.4c0.2-0.1,0.3-0.1,0.3,0
			C696.9,134.3,696.8,134.2,696.6,134.4z"/>
		<path fill="none" d="M695.6,134.6c0,0.1-0.1,0.1-0.1,0.1L219.1,0.3l476.3,134.4c0,0,0,0,0.1,0
			C695.6,134.7,695.6,134.6,695.6,134.6C695.7,134.6,695.6,134.6,695.6,134.6z"/>
		<path fill="none" d="M697.1,134.7c0.1,0,0.1,0,0.2,0.1l262.7-0.1v-34.4l-262.2,34.3C698,134.6,697.8,134.6,697.1,134.7z"/>
		<path fill="none" d="M696.1,134.3C696.1,134.3,696.1,134.3,696.1,134.3C696,134.3,696,134.2,696.1,134.3z"/>
		<path fill="none" d="M695.3,134.4L695.3,134.4C695.2,134.4,695.2,134.4,695.3,134.4z"/>
		<path fill="none" d="M695.6,134.6c-0.4-0.2-0.5-0.2-0.3-0.2c-0.1,0-0.1,0-0.1,0L430,0.3H219.1l476.4,134.4
			C695.5,134.7,695.6,134.6,695.6,134.6z"/>
		<path fill="none" d="M696.1,134.4C696.1,134.4,696.1,134.4,696.1,134.4c0-0.1,0-0.1,0-0.1C696,134.2,696,134.3,696.1,134.4
			L651.2,0.3h-95.8l140.3,134C695.8,134.3,695.9,134.2,696.1,134.4z"/>
		<path fill="none" d="M696.6,134.3c0,0,0,0-0.1,0.1c0,0,0,0,0,0c0.2-0.2,0.3-0.1,0.3,0L834,0.3h-95.5L696.6,134.3
			C696.6,134.3,696.6,134.2,696.6,134.3z"/>
		<path fill="none" d="M697.4,134.4L697.4,134.4c0,0-0.4-0.1-0.4,0.1c0,0,0,0,0,0c0,0,0.1,0.2,0.2,0.2L960,59.5V0.3h-1.5
			L697.4,134.4C697.4,134.4,697.4,134.4,697.4,134.4z"/>
		<radialGradient id="SVGID_2_" cx="734.4462" cy="12.0456" r="541.9455" gradientUnits="userSpaceOnUse">
			<stop  offset="0" style="stop-color:#FFFFFF"/>
			<stop  offset="8.510864e-02" style="stop-color:#FFEDD8"/>
			<stop  offset="0.2082" style="stop-color:#FFD5A7"/>
			<stop  offset="0.3345" style="stop-color:#FFC17D"/>
			<stop  offset="0.462" style="stop-color:#FFB05B"/>
			<stop  offset="0.591" style="stop-color:#FFA340"/>
			<stop  offset="0.7222" style="stop-color:#FF9A2D"/>
			<stop  offset="0.8568" style="stop-color:#FF9522"/>
			<stop  offset="1" style="stop-color:#FF931E"/>
		</radialGradient>
		<path fill="url(#SVGID_2_)" d="M696.1,134.5C696.1,134.4,696.1,134.4,696.1,134.5C696.1,134.5,696.1,134.5,696.1,134.5
			C696.1,134.5,696.1,134.5,696.1,134.5z"/>
		<radialGradient id="SVGID_3_" cx="695.4702" cy="134.7004" r="2.794755e-02" gradientUnits="userSpaceOnUse">
			<stop  offset="0" style="stop-color:#FFFFFF"/>
			<stop  offset="8.510864e-02" style="stop-color:#FFEDD8"/>
			<stop  offset="0.2082" style="stop-color:#FFD5A7"/>
			<stop  offset="0.3345" style="stop-color:#FFC17D"/>
			<stop  offset="0.462" style="stop-color:#FFB05B"/>
			<stop  offset="0.591" style="stop-color:#FFA340"/>
			<stop  offset="0.7222" style="stop-color:#FF9A2D"/>
			<stop  offset="0.8568" style="stop-color:#FF9522"/>
			<stop  offset="1" style="stop-color:#FF931E"/>
		</radialGradient>
		<path fill="url(#SVGID_3_)" d="M695.5,134.7C695.5,134.7,695.5,134.7,695.5,134.7C695.5,134.7,695.5,134.7,695.5,134.7
			L695.5,134.7z"/>
		<radialGradient id="SVGID_4_" cx="734.4462" cy="12.0456" r="541.9455" gradientUnits="userSpaceOnUse">
			<stop  offset="0" style="stop-color:#FFFFFF"/>
			<stop  offset="8.510864e-02" style="stop-color:#FFEDD8"/>
			<stop  offset="0.2082" style="stop-color:#FFD5A7"/>
			<stop  offset="0.3345" style="stop-color:#FFC17D"/>
			<stop  offset="0.462" style="stop-color:#FFB05B"/>
			<stop  offset="0.591" style="stop-color:#FFA340"/>
			<stop  offset="0.7222" style="stop-color:#FF9A2D"/>
			<stop  offset="0.8568" style="stop-color:#FF9522"/>
			<stop  offset="1" style="stop-color:#FF931E"/>
		</radialGradient>
		<path fill="url(#SVGID_4_)" d="M0,0.3v44.8l694.9,89.4c-0.1,0,0,0.1,0.6,0.1L219.1,0.3H0z"/>
		<radialGradient id="SVGID_5_" cx="734.4462" cy="12.0456" r="541.9455" gradientUnits="userSpaceOnUse">
			<stop  offset="0" style="stop-color:#FFFFFF"/>
			<stop  offset="8.510864e-02" style="stop-color:#FFEDD8"/>
			<stop  offset="0.2082" style="stop-color:#FFD5A7"/>
			<stop  offset="0.3345" style="stop-color:#FFC17D"/>
			<stop  offset="0.462" style="stop-color:#FFB05B"/>
			<stop  offset="0.591" style="stop-color:#FFA340"/>
			<stop  offset="0.7222" style="stop-color:#FF9A2D"/>
			<stop  offset="0.8568" style="stop-color:#FF9522"/>
			<stop  offset="1" style="stop-color:#FF931E"/>
		</radialGradient>
		<path fill="url(#SVGID_5_)" d="M695.7,134.6C695.7,134.6,695.7,134.6,695.7,134.6C695.7,134.6,695.7,134.6,695.7,134.6
			C695.7,134.6,695.7,134.6,695.7,134.6z"/>
		<radialGradient id="SVGID_6_" cx="734.4462" cy="12.0456" r="541.9455" gradientUnits="userSpaceOnUse">
			<stop  offset="0" style="stop-color:#FFFFFF"/>
			<stop  offset="8.510864e-02" style="stop-color:#FFEDD8"/>
			<stop  offset="0.2082" style="stop-color:#FFD5A7"/>
			<stop  offset="0.3345" style="stop-color:#FFC17D"/>
			<stop  offset="0.462" style="stop-color:#FFB05B"/>
			<stop  offset="0.591" style="stop-color:#FFA340"/>
			<stop  offset="0.7222" style="stop-color:#FF9A2D"/>
			<stop  offset="0.8568" style="stop-color:#FF9522"/>
			<stop  offset="1" style="stop-color:#FF931E"/>
		</radialGradient>
		<path fill="url(#SVGID_6_)" d="M697.3,134.8c-0.1,0-0.1,0-0.2-0.1c0.7-0.1,0.8-0.1,0.7-0.1L960,100.3V59.5l-262.8,75.2
			c-0.1,0-0.2-0.2-0.2-0.2c0,0,0,0,0,0c0-0.2,0.3-0.1,0.4-0.1L958.5,0.3H834l-137.1,134c-0.1,0-0.2-0.1-0.3,0.1c0,0,0,0-0.1,0
			c0,0,0,0,0,0c0,0,0,0,0,0c0,0,0,0,0,0c0,0,0,0,0,0c0-0.1,0.1-0.1,0.1-0.1c0,0,0,0-0.1,0l0,0c0,0,0,0,0,0l42-134h-87.3l44.9,134
			c0,0-0.1,0-0.1,0c0,0,0,0.1,0.1,0.1c0,0,0,0,0,0c0,0,0,0,0,0c0,0,0,0,0,0c0,0,0,0,0,0c0,0,0,0,0,0c0,0,0,0,0-0.1c0,0,0,0,0,0
			c-0.2-0.2-0.3-0.1-0.3-0.1L555.4,0.3H430l265.3,134.1c0,0,0.2,0,0.4,0.1c0,0,0,0,0,0c0,0,0,0-0.1,0c0,0,0,0,0,0c0,0,0,0,0,0
			c0,0,0,0,0,0c0,0,0,0,0,0c-0.1,0-0.1,0.1-0.2,0.1c0,0,0,0,0,0c-0.1,0-0.1,0-0.2,0.1L0,135.1v90l694.9-90.1c-0.1,0.1,0.1,0.1,0.7,0
			c-0.3,0.3-0.4,0.6,0.3,0.2c0.2,0.5,0.5,0.8,0.5-0.3c0,1.1,0.3,0.8,0.5,0.3c0.7,0.4,0.6,0.2,0.3-0.2c0.6,0.1,0.8,0.1,0.7,0L960,169
			v-34.4L697.3,134.8z"/>
		<radialGradient id="SVGID_7_" cx="734.4462" cy="12.0456" r="541.9455" gradientUnits="userSpaceOnUse">
			<stop  offset="0" style="stop-color:#FFFFFF"/>
			<stop  offset="8.510864e-02" style="stop-color:#FFEDD8"/>
			<stop  offset="0.2082" style="stop-color:#FFD5A7"/>
			<stop  offset="0.3345" style="stop-color:#FFC17D"/>
			<stop  offset="0.462" style="stop-color:#FFB05B"/>
			<stop  offset="0.591" style="stop-color:#FFA340"/>
			<stop  offset="0.7222" style="stop-color:#FF9A2D"/>
			<stop  offset="0.8568" style="stop-color:#FF9522"/>
			<stop  offset="1" style="stop-color:#FF931E"/>
		</radialGradient>
		<path fill="url(#SVGID_7_)" d="M695.6,134.6C695.7,134.5,695.7,134.5,695.6,134.6C695.7,134.5,695.7,134.5,695.6,134.6
			c-0.2-0.2-0.3-0.2-0.4-0.2l0.1,0C695.2,134.4,695.2,134.4,695.6,134.6z"/>
		<radialGradient id="SVGID_8_" cx="734.4462" cy="12.0456" r="541.9455" gradientUnits="userSpaceOnUse">
			<stop  offset="0" style="stop-color:#FFFFFF"/>
			<stop  offset="8.510864e-02" style="stop-color:#FFEDD8"/>
			<stop  offset="0.2082" style="stop-color:#FFD5A7"/>
			<stop  offset="0.3345" style="stop-color:#FFC17D"/>
			<stop  offset="0.462" style="stop-color:#FFB05B"/>
			<stop  offset="0.591" style="stop-color:#FFA340"/>
			<stop  offset="0.7222" style="stop-color:#FF9A2D"/>
			<stop  offset="0.8568" style="stop-color:#FF9522"/>
			<stop  offset="1" style="stop-color:#FF931E"/>
		</radialGradient>
		<path fill="url(#SVGID_8_)" d="M696.1,134.4C696.1,134.4,696.1,134.4,696.1,134.4C696.1,134.4,696.1,134.4,696.1,134.4
			c0-0.1,0-0.1,0-0.1C696,134.3,696,134.3,696.1,134.4z"/>
		<radialGradient id="SVGID_9_" cx="734.4462" cy="12.0456" r="541.9455" gradientUnits="userSpaceOnUse">
			<stop  offset="0" style="stop-color:#FFFFFF"/>
			<stop  offset="8.510864e-02" style="stop-color:#FFEDD8"/>
			<stop  offset="0.2082" style="stop-color:#FFD5A7"/>
			<stop  offset="0.3345" style="stop-color:#FFC17D"/>
			<stop  offset="0.462" style="stop-color:#FFB05B"/>
			<stop  offset="0.591" style="stop-color:#FFA340"/>
			<stop  offset="0.7222" style="stop-color:#FF9A2D"/>
			<stop  offset="0.8568" style="stop-color:#FF9522"/>
			<stop  offset="1" style="stop-color:#FF931E"/>
		</radialGradient>
		<path fill="url(#SVGID_9_)" d="M696.6,134.3c0,0,0,0.1-0.1,0.1c0,0,0,0,0,0c0,0,0,0,0,0C696.6,134.3,696.6,134.3,696.6,134.3z"/>
		<radialGradient id="SVGID_10_" cx="734.4462" cy="12.0456" r="541.9455" gradientUnits="userSpaceOnUse">
			<stop  offset="0" style="stop-color:#FFFFFF"/>
			<stop  offset="8.510864e-02" style="stop-color:#FFEDD8"/>
			<stop  offset="0.2082" style="stop-color:#FFD5A7"/>
			<stop  offset="0.3345" style="stop-color:#FFC17D"/>
			<stop  offset="0.462" style="stop-color:#FFB05B"/>
			<stop  offset="0.591" style="stop-color:#FFA340"/>
			<stop  offset="0.7222" style="stop-color:#FF9A2D"/>
			<stop  offset="0.8568" style="stop-color:#FF9522"/>
			<stop  offset="1" style="stop-color:#FF931E"/>
		</radialGradient>
		<polygon fill="url(#SVGID_10_)" points="696.5,134.3 738.5,0.3 696.5,134.3 		"/>
		<radialGradient id="SVGID_11_" cx="697.3748" cy="134.4033" r="1.140921e-02" gradientUnits="userSpaceOnUse">
			<stop  offset="0" style="stop-color:#FFFFFF"/>
			<stop  offset="8.510864e-02" style="stop-color:#FFEDD8"/>
			<stop  offset="0.2082" style="stop-color:#FFD5A7"/>
			<stop  offset="0.3345" style="stop-color:#FFC17D"/>
			<stop  offset="0.462" style="stop-color:#FFB05B"/>
			<stop  offset="0.591" style="stop-color:#FFA340"/>
			<stop  offset="0.7222" style="stop-color:#FF9A2D"/>
			<stop  offset="0.8568" style="stop-color:#FF9522"/>
			<stop  offset="1" style="stop-color:#FF931E"/>
		</radialGradient>
		<path fill="url(#SVGID_11_)" d="M697.4,134.4L697.4,134.4C697.4,134.4,697.4,134.4,697.4,134.4z"/>
	</g>
	
		<radialGradient id="SVGID_12_" cx="709.6667" cy="143.918" r="145.3045" gradientTransform="matrix(1 0 0 0.969 0 44.2081)" gradientUnits="userSpaceOnUse">
		<stop  offset="0" style="stop-color:#FFC000"/>
		<stop  offset="0.125" style="stop-color:#FFB507"/>
		<stop  offset="0.4047" style="stop-color:#FFA214"/>
		<stop  offset="0.6929" style="stop-color:#FF971C"/>
		<stop  offset="1" style="stop-color:#FF931E"/>
	</radialGradient>
	
		<ellipse fill="url(#SVGID_12_)" stroke="#3996F5" stroke-width="4" stroke-miterlimit="10" cx="709.7" cy="183.7" rx="168" ry="114.7"/>
</g>
<g id="Layer_3">
	<path fill="#18B208" d="M960,162.6c-15.5-12.2-32.3-23.9-54.2-32.1c-18.1-6.7-38.5-10.1-57.8-9.5c-17.2,0.6-34.6,5-49,14.5
		c-11.3,7.4-20.5,17.6-30.4,26.8c-37.6,34.8-92.1,27-135.8,8.2c-29.4-12.7-55.3-29.2-90.3-36c-37.1-7.2-81.1-1.4-108.8,14.5
		c-19.2,11-32.3,26.7-57.8,31.9c-25.5,5.2-53.8-2.3-74.6-12.2c-20.8-9.9-38-22.5-61.5-30.2c-50.1-16.4-116.7-5.8-159.7,16.3
		C43.9,173.4,20.9,198.4,0,223.8v68.6h960V162.6z"/>
</g>
<g id="Layer_6">
	
		<rect x="374" y="169.5" transform="matrix(0.9615 -0.2747 0.2747 0.9615 -42.327 113.7704)" fill="#42210B" stroke="#583C27" stroke-width="4" stroke-miterlimit="10" width="22" height="77"/>
	<g>
		<path fill="#42210B" stroke="#583C27" stroke-width="4" stroke-miterlimit="10" d="M448.3,157.1L312,199.5c-2.5,0.8-5.2-0.6-6-3.2
			l-9.2-29.5c-0.8-2.5,0.6-5.2,3.2-6l136.4-42.4c1.2-0.4,2.4-0.3,3.5,0.3l19.6,9.4c2.5,1.2,3.4,4.2,2.2,6.6l-10.6,20.1
			C450.5,155.8,449.5,156.7,448.3,157.1z"/>
		
			<text transform="matrix(0.9548 -0.2972 0.2972 0.9548 307.898 188.1343)" fill="#F3B603" font-family="'PTSerif-Regular'" font-size="25.7822">pioneer road</text>
	</g>
</g>
<g id="Layer_4">
	<path fill="#FFFFFF" stroke="#3996F5" stroke-width="4" stroke-miterlimit="10" d="M366.1,54.5c0-0.5,0.5-1,0.5-1.5
		c0-10.8-8.4-19.6-19-20c-6.4-17-22.7-29-42-29c-19.4,0-35.9,12.3-42.2,29.6c-1.6-0.4-3.3-0.6-5-0.6c-4,0-7.8,1.1-11.1,2.9
		C242,22.1,228.6,12.3,213,12.3c-18.2,0-33.4,13.3-36.2,30.8c-12.5,4.6-21.3,16.2-21.3,29.9c0,15.1,10.9,29,25.5,32.3
		c2.1,0.6,4.4,2,6.7,2H355c14.7,0,25-14.2,25-28.8v-0.1C380,68,374.8,58.9,366.1,54.5z"/>
	<path fill="#FFFFFF" stroke="#3996F5" stroke-width="4" stroke-miterlimit="10" d="M186.3,89.3H178c-0.8-14-13.5-26-29.1-26
		c-8.6,0-16.3,3.3-21.6,8.9c-2.2-1.3-4.8-2.1-7.6-2.1c-2.2,0-4.2,0.4-6.1,1.2c-3.9-9-13.5-15.3-24.7-15.3
		c-12.2,0-22.4,7.5-25.6,17.7c-1.9-0.7-4-1.1-6.2-1.1c-9.6,0-17.9,7.6-18.5,17.2c-6,2.2-10.7,8-10.7,14.7v-0.1
		c0,8.7,8,16.9,16.6,16.9h141.7c8.7,0,14.7-8.2,14.7-16.9v0C201,95.8,195,89.3,186.3,89.3z"/>
</g>
<g id="Layer_1">
	<path fill="#FFFFFF" d="M0.6,360c-0.2,0.1-0.4,0.3-0.6,0.4V360H0.6z"/>
	<path fill="#FFFFFF" d="M965,274.1V170.9c-0.6-0.2-1.1-0.3-1.7-0.4c-67,5.9-112.5,46.8-178.7,55.4c-55.8,7.3-111.4-9.7-161.9-25.7
		c-50.4-16-107.9-31.8-162.6-22c-34,6.1-60.8,21.2-88.4,34.5c-27.6,13.3-60,25.7-95.4,24.7c-28.3-0.8-53.8-10.1-81.3-14
		c-37.3-5.2-77-0.2-111.6,9.6c-26.6,7.5-56.7,17.7-82.9,28.4c-0.2,0.1-0.4,0.2-0.6,0.3v46.7h965V274.1z"/>
</g>
</svg>
