<?xml version="1.0" encoding="utf-8"?>
<!-- Generator: Adobe Illustrator 18.1.1, SVG Export Plug-In . SVG Version: 6.00 Build 0)  -->
<svg version="1.1" id="Layer_1" xmlns="http://www.w3.org/2000/svg" xmlns:xlink="http://www.w3.org/1999/xlink" x="0px" y="0px"
	 viewBox="0 0 200 200" enable-background="new 0 0 200 200" xml:space="preserve">
<path fill="#F29E02" d="M119,661.4v-42.7c0-24.4-23.8-46.7-50-46.7s-50,22.2-50,46.7v42.7C8.7,673.1,2.3,688.5,2.3,705.3
	C2.3,742.1,32.2,772,69,772s66.7-29.9,66.7-66.7C135.7,688.5,129.3,673.1,119,661.4z M72.3,711.1v24.3c0,1.8-1.5,3.3-3.3,3.3
	s-3.3-1.5-3.3-3.3v-24.3c-2-1.2-3.3-3.3-3.3-5.7c0-3.7,3-6.7,6.7-6.7s6.7,3,6.7,6.7C75.7,707.8,74.3,709.9,72.3,711.1z M112.3,654.8
	c-11.7-10-26.8-16.1-43.3-16.1s-31.7,6.1-43.3,16.1v-36.1c0-20.6,21.1-40,43.3-40s43.3,19.4,43.3,40V654.8z"/>
<g>
	<path fill="#D9C06B" d="M156.1,415c0-0.2-0.1-0.4-0.1-0.7V282.5l-53.3,35.6v148l48.4-32.3l7.2-4.5c-1.4-4.2-2.3-8.2-2.3-11.7
		C156,416.8,156.1,415.9,156.1,415z"/>
	<path fill="#D9C06B" d="M37.8,281.4c-1.1,0.6-1.8,1.7-1.8,2.9v140c0,1.1,0.6,2.2,1.5,2.8l58.5,39v-148l-54.8-36.5
		C40.2,280.9,38.8,280.8,37.8,281.4z"/>
	<path fill="#D9C06B" d="M199.3,374.3c8.6,0,16.6,2.5,23.3,6.9v-56.9c0-1.1-0.6-2.2-1.5-2.8l-58.5-39v112.1
		C170.3,382.5,183.9,374.3,199.3,374.3z"/>
	<path fill="#D9C06B" d="M199.3,381c-20.2,0-36.7,16.4-36.7,36.7c0,6.7,4,16.2,9.5,26.1c0.2,0.4,0.4,0.7,0.6,1.1
		c0.4,0.8,0.9,1.5,1.3,2.3c8,13.6,17.8,26.5,21.3,31c0.4,0.5,0.9,1.1,1.3,1.6c0.6,0.8,1.6,1.2,2.6,1.2c1,0,2-0.5,2.6-1.2
		c0.4-0.5,0.9-1.1,1.3-1.6c3.5-4.5,13.4-17.4,21.3-31c0.4-0.8,0.9-1.5,1.3-2.3c0.2-0.4,0.4-0.7,0.6-1.1c4.7-8.4,8.3-16.5,9.2-22.8
		c0-0.1,0-0.3,0.1-0.4c0.1-1,0.2-1.9,0.2-2.8C236,397.4,219.6,381,199.3,381z M199.3,434.3c-9.2,0-16.7-7.5-16.7-16.7
		s7.5-16.7,16.7-16.7s16.7,7.5,16.7,16.7S208.5,434.3,199.3,434.3z"/>
</g>
<g>
	<path fill="#335A12" d="M166.7,11.7c0-1.8-1.5-3.3-3.3-3.3H3.3C1.5,8.4,0,9.9,0,11.7v99.9c0,1.8,1.5,3.3,3.3,3.3h23.3v30
		c0,1.3,0.8,2.6,2.1,3.1c0.4,0.2,0.8,0.3,1.3,0.3c0.9,0,1.7-0.3,2.4-1l32.4-32.4H80V78.3c0-1.8,1.5-3.3,3.3-3.3h83.3V11.7z"/>
	<path fill="#335A12" d="M196.7,81.6H90h-3.3v3.3v66.7c0,1.8,1.5,3.3,3.3,3.3h50.4h1.5l32.3,35.6c0.6,0.7,1.5,1.1,2.5,1.1
		c0.4,0,0.8-0.1,1.2-0.2c1.3-0.5,2.1-1.7,2.1-3.1v-30v-3.3h3.3h13.3c1.8,0,3.3-1.5,3.3-3.3V84.9C200,83.1,198.5,81.6,196.7,81.6z"/>
</g>
<g>
	<path fill="#A33004" d="M819.7,39.7c11,0,20-9,20-20s-9-20-20-20c-11,0-20,9-20,20S808.7,39.7,819.7,39.7z"/>
	<path fill="#A33004" d="M787.5,46.3v3.3c0,20.5,1.5,42.6,18.8,48.5V133H833V98.2c18.4-5.8,20-28,20-48.5v-3.3H787.5z"/>
	<path fill="#A33004" d="M753-27c11,0,20-9,20-20s-9-20-20-20c-11,0-20,9-20,20S742-27,753-27z"/>
	<path fill="#A33004" d="M720.9-17c0,20.8,1.5,43.3,18.8,49.2v34.1h26.7V32.2c18.4-5.8,20-28.4,20-49.2v-3.3h-65.5V-17z"/>
	<path fill="#A33004" d="M686.4,39.7c11,0,20-9,20-20s-9-20-20-20c-11,0-20,9-20,20S675.3,39.7,686.4,39.7z"/>
	<path fill="#A33004" d="M653,49.7c0,19.9,2.3,43.2,20,49.2V133h26.7V98.9c18.8-6,18.8-29.9,18.8-49.2v-3.3H653V49.7z"/>
</g>
</svg>
