<?xml version="1.0" encoding="utf-8"?>
<!-- Generator: Adobe Illustrator 18.1.1, SVG Export Plug-In . SVG Version: 6.00 Build 0)  -->
<svg version="1.1" id="Layer_1" xmlns="http://www.w3.org/2000/svg" xmlns:xlink="http://www.w3.org/1999/xlink" x="0px" y="0px"
	 viewBox="0 0 200 200" enable-background="new 0 0 200 200" xml:space="preserve">
<path fill="#F29E02" d="M-534,728.4v-42.7c0-24.4-23.8-46.7-50-46.7s-50,22.2-50,46.7v42.7c-10.3,11.7-16.7,27.1-16.7,43.9
	c0,36.8,29.9,66.7,66.7,66.7s66.7-29.9,66.7-66.7C-517.4,755.5-523.7,740.1-534,728.4z M-580.7,778.1v24.3c0,1.8-1.5,3.3-3.3,3.3
	s-3.3-1.5-3.3-3.3v-24.3c-2-1.2-3.3-3.3-3.3-5.7c0-3.7,3-6.7,6.7-6.7s6.7,3,6.7,6.7C-577.4,774.8-578.7,776.9-580.7,778.1z
	 M-540.7,721.8c-11.7-10-26.8-16.1-43.3-16.1s-31.7,6.1-43.3,16.1v-36.1c0-20.6,21.1-40,43.3-40s43.3,19.4,43.3,40V721.8z"/>
<g>
	<path fill="#D9C06B" d="M-496.9,482c0-0.2-0.1-0.4-0.1-0.7V349.5l-53.3,35.6v148l48.4-32.3l7.2-4.5c-1.4-4.2-2.3-8.2-2.3-11.7
		C-497,483.8-497,482.9-496.9,482z"/>
	<path fill="#D9C06B" d="M-615.3,348.4c-1.1,0.6-1.8,1.7-1.8,2.9v140c0,1.1,0.6,2.2,1.5,2.8l58.5,39v-148l-54.8-36.5
		C-612.9,347.9-614.2,347.8-615.3,348.4z"/>
	<path fill="#D9C06B" d="M-453.7,441.3c8.6,0,16.6,2.5,23.3,6.9v-56.9c0-1.1-0.6-2.2-1.5-2.8l-58.5-39v112.1
		C-482.7,449.5-469.1,441.3-453.7,441.3z"/>
	<path fill="#D9C06B" d="M-453.7,448c-20.2,0-36.7,16.4-36.7,36.7c0,6.7,4,16.2,9.5,26.1c0.2,0.4,0.4,0.7,0.6,1.1
		c0.4,0.8,0.9,1.5,1.3,2.3c8,13.6,17.8,26.5,21.3,31c0.4,0.5,0.9,1.1,1.3,1.6c0.6,0.8,1.6,1.2,2.6,1.2s2-0.5,2.6-1.2
		c0.4-0.5,0.9-1.1,1.3-1.6c3.5-4.5,13.4-17.4,21.3-31c0.4-0.8,0.9-1.5,1.3-2.3c0.2-0.4,0.4-0.7,0.6-1.1c4.7-8.4,8.3-16.5,9.2-22.8
		c0-0.1,0-0.3,0.1-0.4c0.1-1,0.2-1.9,0.2-2.8C-417,464.4-433.5,448-453.7,448z M-453.7,501.3c-9.2,0-16.7-7.5-16.7-16.7
		s7.5-16.7,16.7-16.7s16.7,7.5,16.7,16.7S-444.5,501.3-453.7,501.3z"/>
</g>
<g>
	<path fill="#335A12" d="M-486.4,78.7c0-1.8-1.5-3.3-3.3-3.3h-160c-1.8,0-3.3,1.5-3.3,3.3v99.9c0,1.8,1.5,3.3,3.3,3.3h23.3v30
		c0,1.3,0.8,2.6,2.1,3.1c0.4,0.2,0.8,0.3,1.3,0.3c0.9,0,1.7-0.3,2.4-1l32.4-32.4h15.3v-36.7c0-1.8,1.5-3.3,3.3-3.3h83.3V78.7z"/>
	<path fill="#335A12" d="M-456.4,148.6H-563h-3.3v3.3v66.7c0,1.8,1.5,3.3,3.3,3.3h50.4h1.5l32.3,35.6c0.6,0.7,1.5,1.1,2.5,1.1
		c0.4,0,0.8-0.1,1.2-0.2c1.3-0.5,2.1-1.7,2.1-3.1v-30v-3.3h3.3h13.3c1.8,0,3.3-1.5,3.3-3.3v-66.7
		C-453,150.1-454.5,148.6-456.4,148.6z"/>
</g>
<g>
	<path fill="#A33004" d="M166.7,106.7c11,0,20-9,20-20s-9-20-20-20c-11,0-20,9-20,20S155.6,106.7,166.7,106.7z"/>
	<path fill="#A33004" d="M134.5,113.3v3.3c0,20.5,1.5,42.6,18.8,48.5V200H180v-34.8c18.4-5.8,20-28,20-48.5v-3.3H134.5z"/>
	<path fill="#A33004" d="M100,40c11,0,20-9,20-20s-9-20-20-20C89,0,80,9,80,20S89,40,100,40z"/>
	<path fill="#A33004" d="M67.8,50c0,20.8,1.5,43.3,18.8,49.2v34.1h26.7V99.2c18.4-5.8,20-28.4,20-49.2v-3.3H67.8V50z"/>
	<path fill="#A33004" d="M33.3,106.7c11,0,20-9,20-20s-9-20-20-20c-11,0-20,9-20,20S22.3,106.7,33.3,106.7z"/>
	<path fill="#A33004" d="M0,116.7c0,19.9,2.3,43.2,20,49.2V200h26.7v-34.1c18.8-6,18.8-29.9,18.8-49.2v-3.3H0V116.7z"/>
</g>
</svg>
