<?xml version="1.0" encoding="utf-8"?>
<!-- Generator: Adobe Illustrator 18.1.1, SVG Export Plug-In . SVG Version: 6.00 Build 0)  -->
<svg version="1.1" id="Layer_1" xmlns="http://www.w3.org/2000/svg" xmlns:xlink="http://www.w3.org/1999/xlink" x="0px" y="0px"
	 viewBox="0 0 200 200" enable-background="new 0 0 200 200" xml:space="preserve">
<path fill="#F29E02" d="M83,380.4v-42.7c0-24.4-23.8-46.7-50-46.7s-50,22.2-50,46.7v42.7c-10.3,11.7-16.7,27.1-16.7,43.9
	c0,36.8,29.9,66.7,66.7,66.7s66.7-29.9,66.7-66.7C99.7,407.5,93.3,392.1,83,380.4z M36.3,430.1v24.3c0,1.8-1.5,3.3-3.3,3.3
	c-1.8,0-3.3-1.5-3.3-3.3v-24.3c-2-1.2-3.3-3.3-3.3-5.7c0-3.7,3-6.7,6.7-6.7s6.7,3,6.7,6.7C39.7,426.8,38.3,428.9,36.3,430.1z
	 M76.3,373.8c-11.7-10-26.8-16.1-43.3-16.1s-31.7,6.1-43.3,16.1v-36.1c0-20.6,21.1-40,43.3-40s43.3,19.4,43.3,40V373.8z"/>
<g>
	<path fill="#D9C06B" d="M120.1,134c0-0.2-0.1-0.4-0.1-0.7V1.5L66.7,37.1v148l48.4-32.3l7.2-4.5c-1.4-4.2-2.3-8.2-2.3-11.7
		C120,135.8,120.1,134.9,120.1,134z"/>
	<path fill="#D9C06B" d="M1.8,0.4C0.7,1,0,2.1,0,3.3v140c0,1.1,0.6,2.2,1.5,2.8l58.5,39v-148L5.2,0.6C4.2-0.1,2.8-0.2,1.8,0.4z"/>
	<path fill="#D9C06B" d="M163.3,93.3c8.6,0,16.6,2.5,23.3,6.9V43.3c0-1.1-0.6-2.2-1.5-2.8l-58.5-39v112.1
		C134.3,101.5,147.9,93.3,163.3,93.3z"/>
	<path fill="#D9C06B" d="M163.3,100c-20.2,0-36.7,16.4-36.7,36.7c0,6.7,4,16.2,9.5,26.1c0.2,0.4,0.4,0.7,0.6,1.1
		c0.4,0.8,0.9,1.5,1.3,2.3c8,13.6,17.8,26.5,21.3,31c0.4,0.5,0.9,1.1,1.3,1.6c0.6,0.8,1.6,1.2,2.6,1.2c1,0,2-0.5,2.6-1.2
		c0.4-0.5,0.9-1.1,1.3-1.6c3.5-4.5,13.4-17.4,21.3-31c0.4-0.8,0.9-1.5,1.3-2.3c0.2-0.4,0.4-0.7,0.6-1.1c4.7-8.4,8.3-16.5,9.2-22.8
		c0-0.1,0-0.3,0.1-0.4c0.1-1,0.2-1.9,0.2-2.8C200,116.4,183.6,100,163.3,100z M163.3,153.3c-9.2,0-16.7-7.5-16.7-16.7
		s7.5-16.7,16.7-16.7s16.7,7.5,16.7,16.7S172.5,153.3,163.3,153.3z"/>
</g>
<g>
	<path fill="#335A12" d="M130.7-269.3c0-1.8-1.5-3.3-3.3-3.3h-160c-1.8,0-3.3,1.5-3.3,3.3v99.9c0,1.8,1.5,3.3,3.3,3.3h23.3v30
		c0,1.3,0.8,2.6,2.1,3.1c0.4,0.2,0.8,0.3,1.3,0.3c0.9,0,1.7-0.3,2.4-1l32.4-32.4H44v-36.7c0-1.8,1.5-3.3,3.3-3.3h83.3V-269.3z"/>
	<path fill="#335A12" d="M160.7-199.4H54h-3.3v3.3v66.7c0,1.8,1.5,3.3,3.3,3.3h50.4h1.5l32.3,35.6c0.6,0.7,1.5,1.1,2.5,1.1
		c0.4,0,0.8-0.1,1.2-0.2c1.3-0.5,2.1-1.7,2.1-3.1v-30v-3.3h3.3h13.3c1.8,0,3.3-1.5,3.3-3.3v-66.7C164-197.9,162.5-199.4,160.7-199.4
		z"/>
</g>
<g>
	<path fill="#A33004" d="M783.7-241.3c11,0,20-9,20-20c0-11-9-20-20-20c-11,0-20,9-20,20C763.7-250.3,772.7-241.3,783.7-241.3z"/>
	<path fill="#A33004" d="M751.5-234.7v3.3c0,20.5,1.5,42.6,18.8,48.5v34.9H797v-34.8c18.4-5.8,20-28,20-48.5v-3.3H751.5z"/>
	<path fill="#A33004" d="M717-308c11,0,20-9,20-20s-9-20-20-20c-11,0-20,9-20,20S706-308,717-308z"/>
	<path fill="#A33004" d="M684.9-298c0,20.8,1.5,43.3,18.8,49.2v34.1h26.7v-34.1c18.4-5.8,20-28.4,20-49.2v-3.3h-65.5V-298z"/>
	<path fill="#A33004" d="M650.4-241.3c11,0,20-9,20-20c0-11-9-20-20-20c-11,0-20,9-20,20C630.4-250.3,639.3-241.3,650.4-241.3z"/>
	<path fill="#A33004" d="M617-231.3c0,19.9,2.3,43.2,20,49.2v34.1h26.7v-34.1c18.8-6,18.8-29.9,18.8-49.2v-3.3H617V-231.3z"/>
</g>
</svg>
