<?xml version="1.0" encoding="utf-8"?>
<!-- Generator: Adobe Illustrator 19.0.0, SVG Export Plug-In . SVG Version: 6.00 Build 0)  -->
<svg version="1.1" id="Layer_1" xmlns="http://www.w3.org/2000/svg" xmlns:xlink="http://www.w3.org/1999/xlink" x="0px" y="0px"
	 viewBox="0 0 925.6 281.1" style="enable-background:new 0 0 925.6 281.1;" xml:space="preserve">
<style type="text/css">
	.st0{clip-path:url(#XMLID_76_);}
	.st1{clip-path:url(#XMLID_144_);fill-rule:evenodd;clip-rule:evenodd;}
	.st2{clip-path:url(#XMLID_144_);fill:none;stroke:#000000;stroke-width:0.567;stroke-miterlimit:22.926;}
	.st3{clip-path:url(#XMLID_144_);fill-rule:evenodd;clip-rule:evenodd;fill:#333333;}
	.st4{clip-path:url(#XMLID_144_);fill-rule:evenodd;clip-rule:evenodd;fill:#383838;}
	.st5{clip-path:url(#XMLID_144_);fill-rule:evenodd;clip-rule:evenodd;fill:#FFFFFF;}
	.st6{fill:#EE5606;}
	.st7{fill:#A76010;}
</style>
<g>
	<g>
		<g>
			<defs>
				<rect id="XMLID_2_" width="496.9" height="330.1"/>
			</defs>
			<clipPath id="XMLID_76_">
				<use xlink:href="#XMLID_2_"  style="overflow:visible;"/>
			</clipPath>
			<g class="st0">
				<defs>
					<rect id="XMLID_3_" width="496.9" height="330.1"/>
				</defs>
				<clipPath id="XMLID_144_">
					<use xlink:href="#XMLID_3_"  style="overflow:visible;"/>
				</clipPath>
				<path id="XMLID_75_" class="st1" d="M154,0.5h0.8h3.1h0.9h3.2h0.9h3.1h1h3.2h1.1h3.1h0.9h3.2h1h3.1h1h2.1h1h0.9h1.1h2h0.9h2.9h1
					h3h0.9h2.9h0.9h2.9h0.8h2.9h0.8h2.9h0.7h2.9h0.7h2.6h1.9l0,0c-0.2,0-0.5,0-0.7,0.1c-7.7,0.6-16.2,1-25.8,1.5
					c-7.2,0.4-15.8,0.8-22.7,1.3c-0.4,0-0.8,0.1-1.1,0.1c-8.3,0.6-7.8,0.5,0.5,1.1c9.2,0.6,20,1.1,30.9,1.7c0.9,0,1.8,0.1,2.7,0.1
					C219.7,7,234.9,7.7,249,8.6c1,0.1,2,0.1,3,0.2c8.9,0.6,16,1.1,23.8,1.8c9.8,1,15.6,1.8,19.8,3.1c3.3,1.2,3.4,2.1,1.2,3.2
					c-2.2,1.1-5.7,1.9-10.9,2.9l-0.3,0.1h0.1l-0.1,0c-0.4,0.1-0.8,0.1-1.2,0.2c-14,2.4-29.4,4.4-46.9,6.6
					c-13.1,1.7-28.7,3.6-41.3,5.6c-0.7,0.1-1.4,0.2-2,0.4c-15,2.6-14.2,2.2,0.9,4.6c16.8,2.6,36.3,4.9,56.2,7.2
					c1.6,0.2,3.2,0.4,4.8,0.6c25.3,3,53.1,6.2,78.7,10.1c1.8,0.3,3.6,0.5,5.4,0.8c16.2,2.5,29.1,4.8,43.3,8
					c17.7,4.3,28.4,7.9,36,13.3c5.9,5.1,6.2,8.9,2.1,13.9c-4,4.6-10.3,8.2-19.9,12.4c-19.1,8-42.5,15.2-70.6,23.7
					c-22,6.4-48.3,14.1-69.7,22.5c-1.2,0.5-2.4,1-3.5,1.5c-27.1,11.5-28.3,13.9,1,29.5c22.2,12.2,49.7,23.6,80.4,36.9
					c2.4,1,5,2,7.5,3.1c41,17.5,87.2,36.5,134.7,60.3H71.9c-22.2-19.2-40.2-36.3-53.7-53.8c-46.2-61.5,13.8-88.2,86.1-108.6
					c1-0.2,2.1-0.5,3.2-0.8c30.4-8.4,59-14.4,88.5-20.7c1.7-0.3,3.4-0.7,5.2-1.1c22.8-4.9,44.4-9.4,61.7-14.3c21-6,13.5-5.3-5.3-8.9
					c-23.8-4.4-49.7-8-73.8-11.5c-28.3-4.1-53.3-7.6-75.6-11.8c-10-2-18.7-3.9-24.7-6.1c-0.4-0.2-0.8-0.3-1.2-0.5
					c-18.8-7.4,2.6-12.6,12.9-14.9c7.6-1.6,15.1-2.9,24.5-4.2c0.6,0,1.1-0.1,1.7-0.2c10.6-1.4,21.1-2.7,31.8-3.9h2.5
					c5.7-0.5,11.3-1,17-1.5c0.9-0.1,1.9-0.2,2.9-0.2c12.6-1.1,24.5-2.2,34-3.3c11.6-1.4,7.4-1.2-2.9-2.1c-13.1-1-27.4-1.9-40.6-2.7
					c-15.6-0.9-29.3-1.8-41.6-2.7c-5.5-0.5-10.3-0.9-13.6-1.4c-0.2,0-0.5-0.1-0.7-0.1c-10.3-1.7,1.4-2.9,7.1-3.4
					c4.2-0.4,8.3-0.7,13.5-1c0.3,0,0.6,0,0.9-0.1c5.8-0.3,11.6-0.6,17.5-0.9h2.2H154z"/>
				<path id="XMLID_74_" class="st2" d="M154,0.5h0.8h3.1h0.9h3.2h0.9h3.1h1h3.2h1.1h3.1h0.9h3.2h1h3.1h1h2.1h1h0.9h1.1h2h0.9h2.9h1
					h3h0.9h2.9h0.9h2.9h0.8h2.9h0.8h2.9h0.7h2.9h0.7h2.6h1.9l0,0c-0.2,0-0.5,0-0.7,0.1c-7.7,0.6-16.2,1-25.8,1.5
					c-7.2,0.4-15.8,0.8-22.7,1.3c-0.4,0-0.8,0.1-1.1,0.1c-8.3,0.6-7.8,0.5,0.5,1.1c9.2,0.6,20,1.1,30.9,1.7c0.9,0,1.8,0.1,2.7,0.1
					C219.7,7,234.9,7.7,249,8.6c1,0.1,2,0.1,3,0.2c8.9,0.6,16,1.1,23.8,1.8c9.8,1,15.6,1.8,19.8,3.1c3.3,1.2,3.4,2.1,1.2,3.2
					c-2.2,1.1-5.7,1.9-10.9,2.9l-0.3,0.1h0.1l-0.1,0c-0.4,0.1-0.8,0.1-1.2,0.2c-14,2.4-29.4,4.4-46.9,6.6
					c-13.1,1.7-28.7,3.6-41.3,5.6c-0.7,0.1-1.4,0.2-2,0.4c-15,2.6-14.2,2.2,0.9,4.6c16.8,2.6,36.3,4.9,56.2,7.2
					c1.6,0.2,3.2,0.4,4.8,0.6c25.3,3,53.1,6.2,78.7,10.1c1.8,0.3,3.6,0.5,5.4,0.8c16.2,2.5,29.1,4.8,43.3,8
					c17.7,4.3,28.4,7.9,36,13.3c5.9,5.1,6.2,8.9,2.1,13.9c-4,4.6-10.3,8.2-19.9,12.4c-19.1,8-42.5,15.2-70.6,23.7
					c-22,6.4-48.3,14.1-69.7,22.5c-1.2,0.5-2.4,1-3.5,1.5c-27.1,11.5-28.3,13.9,1,29.5c22.2,12.2,49.7,23.6,80.4,36.9
					c2.4,1,5,2,7.5,3.1c41,17.5,87.2,36.5,134.7,60.3H71.9c-22.2-19.2-40.2-36.3-53.7-53.8c-46.2-61.5,13.8-88.2,86.1-108.6
					c1-0.2,2.1-0.5,3.2-0.8c30.4-8.4,59-14.4,88.5-20.7c1.7-0.3,3.4-0.7,5.2-1.1c22.8-4.9,44.4-9.4,61.7-14.3c21-6,13.5-5.3-5.3-8.9
					c-23.8-4.4-49.7-8-73.8-11.5c-28.3-4.1-53.3-7.6-75.6-11.8c-10-2-18.7-3.9-24.7-6.1c-0.4-0.2-0.8-0.3-1.2-0.5
					c-18.8-7.4,2.6-12.6,12.9-14.9c7.6-1.6,15.1-2.9,24.5-4.2c0.6,0,1.1-0.1,1.7-0.2c10.6-1.4,21.1-2.7,31.8-3.9h2.5
					c5.7-0.5,11.3-1,17-1.5c0.9-0.1,1.9-0.2,2.9-0.2c12.6-1.1,24.5-2.2,34-3.3c11.6-1.4,7.4-1.2-2.9-2.1c-13.1-1-27.4-1.9-40.6-2.7
					c-15.6-0.9-29.3-1.8-41.6-2.7c-5.5-0.5-10.3-0.9-13.6-1.4c-0.2,0-0.5-0.1-0.7-0.1c-10.3-1.7,1.4-2.9,7.1-3.4
					c4.2-0.4,8.3-0.7,13.5-1c0.3,0,0.6,0,0.9-0.1c5.8-0.3,11.6-0.6,17.5-0.9h2.2H154z"/>
				<path id="XMLID_73_" class="st3" d="M147.5,0.4c-5.9,0.3-11.7,0.5-17.5,0.9c-0.3,0-0.6,0-1,0.1c-5.2,0.3-9.4,0.6-13.5,0.9
					c-5.7,0.5-17.4,1.7-7.1,3.3c0.2,0,0.4,0.1,0.7,0.1c3.3,0.5,8.1,0.9,13.6,1.4C135,8,148.8,8.8,164.4,9.8
					c13.3,0.8,27.6,1.6,40.7,2.6c10.4,0.8,14.5,0.7,2.9,2c-9.5,1.1-21.4,2.1-34,3.2c-1,0.1-1.9,0.2-2.9,0.2c-5.7,0.5-11.4,1-17,1.5
					h130.2c0.1,0,0.2,0,0.3-0.1c5.3-1,8.7-1.8,11-2.8c2.3-1.1,2.1-2-1.2-3.1c-4.2-1.2-10.1-2-19.8-3c-7.8-0.7-15-1.2-23.9-1.8
					c-1-0.1-2-0.1-3-0.2c-14.1-0.9-29.4-1.6-43.4-2.3c-0.9,0-1.8-0.1-2.7-0.1c-11-0.5-21.7-1.1-31-1.6c-8.3-0.5-8.8-0.4-0.5-1
					c0.4,0,0.7-0.1,1.1-0.1c6.9-0.5,15.5-0.9,22.8-1.3c9.7-0.5,18.2-0.9,25.9-1.5c0.2,0,0.4,0,0.7-0.1l0,0H147.5z"/>
				<path id="XMLID_72_" class="st4" d="M208.9,0.4h2.9c-6.6,0.4-14.6,0.8-22.7,1.2C180.9,2,172.2,2.5,164.4,3
					c-11.9,0.8-10.5,0.9,0.4,1.6c10.2,0.7,22.4,1.2,34.7,1.9C214.7,7.3,229.9,8,245.2,9c8.2,0.5,14.9,1,22,1.7
					c0.4,0,0.9,0.1,1.3,0.1c7.7,0.8,12.3,1.5,15.3,2.5c0.2,0.1,0.3,0.1,0.5,0.2c2.3,0.9,1.7,1.7-0.2,2.6c-0.1,0.1-0.3,0.1-0.4,0.2
					c-2.1,0.8-5.8,1.6-10.4,2.3c-1.6,0.3-3.3,0.5-5,0.8h-4.9c2.3-0.3,4.4-0.6,6.5-1c5-0.8,8.3-1.6,10.7-2.4c0.1-0.1,0.2-0.1,0.4-0.2
					c2-0.9,1.8-1.6-0.4-2.5c-0.2-0.1-0.4-0.1-0.6-0.2c-2.7-0.9-8.2-1.6-15.1-2.3c-0.4,0-0.8-0.1-1.2-0.1c-6.2-0.6-13-1.1-20.2-1.6
					c-15.3-1-30.4-1.7-45.5-2.5c-0.9-0.1-1.8-0.1-2.7-0.1c-11.5-0.6-22.8-1.1-32.3-1.8c-12-0.8-12.9-1-0.4-1.8
					c0.4,0,0.8-0.1,1.2-0.1c7.2-0.5,16-0.9,23.7-1.3C195.3,1.2,202.5,0.8,208.9,0.4"/>
				<path id="XMLID_71_" class="st4" d="M205.1,0.4h2.9c-6.3,0.4-13.3,0.7-20.9,1.1c-0.6,0-1.1,0.1-1.7,0.1c-8,0.4-16,0.8-23.4,1.3
					C149.5,3.7,150,4,162.5,4.8c10.3,0.7,22.7,1.3,35.1,1.9c15,0.8,30.1,1.5,45.4,2.5c0.4,0,0.9,0.1,1.4,0.1
					c7.4,0.5,13.6,1,19.9,1.6c0.4,0.1,0.8,0.1,1.2,0.1c7.1,0.7,11.4,1.4,14.1,2.3c2.3,0.9,2.1,1.6-0.1,2.6c-0.2,0.1-0.3,0.1-0.4,0.2
					c-2.1,0.8-5.7,1.5-10.3,2.2c-2.2,0.4-4.6,0.7-7.1,1.1h-5c3.1-0.4,6-0.8,8.8-1.3c0.3,0,0.6-0.1,0.9-0.1c4.4-0.7,7.5-1.4,9.7-2.2
					c0.1,0,0.2-0.1,0.4-0.2c1.9-0.8,1.9-1.5-0.1-2.3c-2.7-0.9-7.2-1.6-14.4-2.3c-0.4,0-0.8-0.1-1.2-0.1c-6-0.6-12.6-1.1-19.5-1.5
					c-0.9-0.1-1.9-0.1-2.8-0.2c-13.7-0.9-28.8-1.6-42.4-2.3c-12.7-0.6-25.1-1.3-35.5-1.9c-3.3-0.2-6.3-0.4-8.5-0.7
					c-0.9-0.1-1.8-0.2-1.7-0.4c0.2-0.2,1.2-0.3,2.5-0.4c2.2-0.2,4.7-0.4,7.6-0.6c0.4,0,0.8-0.1,1.3-0.1c7.4-0.5,16.2-0.9,24.1-1.3
					c0.5,0,1.1-0.1,1.7-0.1C193.8,1,199.7,0.7,205.1,0.4"/>
				<path id="XMLID_70_" class="st4" d="M201.4,0.4h2.9c-5.8,0.3-12.2,0.7-19,1c-8.6,0.4-17.3,0.8-25.4,1.4
					c-2.9,0.2-5.4,0.4-7.7,0.6c-1.3,0.1-2.3,0.3-2.5,0.4c-0.1,0.1,0.8,0.3,1.8,0.4c2.3,0.3,5.3,0.5,8.6,0.7c0.5,0,1.1,0.1,1.6,0.1
					c9.7,0.6,22.3,1.2,34,1.8c0.9,0,1.8,0.1,2.7,0.1c14.1,0.7,28.1,1.4,42.4,2.3c7.7,0.5,13.9,1,20.6,1.6c7,0.7,11.4,1.4,14.1,2.3
					c0.1,0,0.2,0.1,0.4,0.2c1.9,0.8,1.2,1.5-0.7,2.3c-0.1,0.1-0.3,0.1-0.4,0.1c-2.2,0.7-5.7,1.4-10.1,2.1c-2.9,0.5-6,0.9-9.3,1.3
					H250c4-0.5,7.8-1,11.2-1.5c4.7-0.8,8-1.4,10.4-2.2c0.1-0.1,0.2-0.1,0.4-0.1c1.9-0.8,1.9-1.4,0.2-2.2c-2.5-0.9-6.5-1.5-13.2-2.2
					c-0.4,0-0.8-0.1-1.1-0.1c-5.7-0.6-12.1-1-18.8-1.5c-15.1-1-30.1-1.7-44.9-2.5c-0.9,0-1.8-0.1-2.7-0.1c-12-0.6-23.4-1.2-33.3-1.8
					c-3.5-0.2-6.5-0.5-8.9-0.8c-1.2-0.1-2.1-0.3-1.9-0.5c0.3-0.2,1.3-0.3,2.8-0.5c2.3-0.2,5-0.4,8-0.6c8.2-0.5,16.9-0.9,25.6-1.4
					c0.6,0,1.2-0.1,1.8-0.1C191.2,0.9,196.5,0.7,201.4,0.4"/>
				<path id="XMLID_69_" class="st4" d="M197.6,0.4h2.9c-5.3,0.3-11.1,0.6-17.2,0.9c-0.6,0-1.2,0.1-1.8,0.1
					c-8.2,0.4-16.2,0.8-23.9,1.3c-3.1,0.2-5.8,0.4-8.1,0.6c-1.6,0.2-2.6,0.3-2.9,0.5c-0.2,0.2,0.7,0.3,2,0.5c2.4,0.3,5.5,0.5,9,0.8
					c0.5,0,1.1,0.1,1.7,0.1c9.8,0.7,22.5,1.3,34.4,1.9c0.9,0.1,1.8,0.1,2.7,0.1c14,0.7,27.9,1.4,42.1,2.4c0.4,0,0.9,0.1,1.3,0.1
					c6.8,0.5,12.6,0.9,18.4,1.5c0.4,0,0.7,0.1,1.1,0.1c6,0.6,9.7,1.3,11.9,2c0.1,0.1,0.2,0.1,0.3,0.1c1.7,0.7,0.9,1.4-0.9,2.1
					c-2.4,0.8-5.7,1.4-10.3,2.2c-0.6,0.1-1.2,0.2-1.8,0.3c-2.9,0.4-6.3,0.9-9.9,1.3h-5.4c5-0.6,9.6-1.2,13.8-1.8
					c0.3,0,0.6-0.1,0.9-0.1c4.1-0.7,7.1-1.3,9.3-2c2.1-0.8,2.5-1.3,0.8-2.1c-2.1-0.8-6-1.4-12.1-2c-0.4,0-0.7-0.1-1.1-0.1
					c-5.5-0.6-11.7-1-18-1.4c-15.1-1-29.9-1.8-44.6-2.5c-0.9,0-1.8-0.1-2.7-0.1c-12.2-0.6-23.7-1.2-33.7-1.9
					c-3.7-0.3-6.9-0.5-9.3-0.8c-1.4-0.2-2.5-0.3-2.2-0.6c0.4-0.2,1.6-0.4,3.4-0.6c2.5-0.3,5.2-0.4,8.4-0.7c0.5,0,0.9-0.1,1.4-0.1
					c7.5-0.5,16.4-0.9,24.5-1.3C187.4,0.9,192.7,0.7,197.6,0.4"/>
				<path id="XMLID_68_" class="st4" d="M193.7,0.4h3c-4.8,0.3-9.9,0.5-15.4,0.8c-0.6,0-1.2,0.1-1.7,0.1c-8.3,0.4-16.4,0.8-24.1,1.3
					c-0.2,0-0.5,0-0.7,0c-3,0.2-5.6,0.4-7.9,0.6c-1.9,0.2-3.1,0.4-3.5,0.6c-0.2,0.2,0.8,0.4,2.3,0.6c2.5,0.3,5.6,0.5,9.4,0.8
					c10.8,0.7,23.3,1.3,36.5,2c0.9,0.1,1.8,0.1,2.7,0.1c13.9,0.7,27.7,1.4,41.9,2.4c0.4,0,0.9,0.1,1.3,0.1
					c6.5,0.4,12.1,0.9,17.6,1.5c6,0.6,9.8,1.2,11.8,2c1.7,0.8,1.2,1.4-0.9,2.1c-0.1,0-0.3,0.1-0.4,0.1c-2.1,0.7-5.6,1.3-9.7,2
					c-0.6,0.1-1.2,0.2-1.7,0.3c-3.7,0.5-7.9,1.1-12.5,1.6h-5.5c6-0.7,11.6-1.4,16.6-2.1c0.3,0,0.5-0.1,0.8-0.1c4-0.6,7-1.2,9.1-1.9
					c0.1,0,0.2-0.1,0.3-0.1c1.9-0.6,2.1-1.2,0.7-1.9c-1.9-0.7-5.4-1.2-11-1.8c-0.3,0-0.7-0.1-1-0.1c-5.2-0.5-11.2-1-17.3-1.4
					c-0.9,0-1.8-0.1-2.7-0.2c-13.5-0.9-28.4-1.6-41.7-2.3c-13.3-0.7-26-1.3-36.8-2.1c-0.3,0-0.6,0-0.8-0.1c-3.6-0.3-6.5-0.5-9-0.8
					c-1.8-0.2-2.8-0.4-2.5-0.7c0.5-0.2,1.8-0.4,3.9-0.6c2.7-0.3,5.5-0.5,8.9-0.7c0.5,0,0.9-0.1,1.4-0.1c7.6-0.5,16.6-0.9,24.7-1.3
					C184.8,0.9,189.4,0.6,193.7,0.4"/>
				<path id="XMLID_67_" class="st4" d="M189.9,0.4h2.9c-4.2,0.2-8.7,0.4-13.4,0.7c-0.6,0-1.2,0.1-1.7,0.1
					c-8.3,0.4-16.6,0.8-24.4,1.3c-3.4,0.2-6.3,0.4-9,0.7c-2.2,0.2-3.5,0.4-4,0.7c-0.3,0.3,0.7,0.5,2.6,0.7c2.7,0.3,5.9,0.6,9.9,0.9
					c10.9,0.7,23.5,1.4,36.9,2.1c0.9,0,1.8,0.1,2.7,0.1c13.8,0.7,27.5,1.4,41.6,2.4c0.4,0,0.8,0.1,1.3,0.1
					c6.2,0.4,11.6,0.9,16.9,1.4c5.4,0.6,8.9,1.1,10.7,1.8c1.5,0.7,0.9,1.3-1.1,1.9c-2.3,0.7-5.5,1.3-9.8,2c-0.6,0.1-1.2,0.2-1.7,0.3
					c-4.5,0.6-9.7,1.3-15.3,1.9h-5.5c7.1-0.8,13.6-1.5,19.4-2.4c4.3-0.6,7.4-1.2,9.7-1.9c1.9-0.6,2.5-1.1,1.2-1.8
					c-0.1,0-0.2-0.1-0.3-0.1c-1.5-0.6-5.1-1.1-9.6-1.6c-0.3,0-0.6-0.1-0.9-0.1c-5-0.5-10.7-1-16.7-1.4c-14.8-1-29.5-1.7-44-2.5
					c-0.9,0-1.8-0.1-2.7-0.1c-12.7-0.7-24.4-1.3-34.6-2c-4.2-0.3-7.4-0.6-10.3-0.9c-2-0.3-3.1-0.5-2.7-0.8c0.6-0.3,2-0.5,4.4-0.7
					c2.9-0.3,5.9-0.5,9.5-0.7c0.5,0,0.9-0.1,1.4-0.1c7.7-0.5,16.7-0.9,24.9-1.3c0.6,0,1.1-0.1,1.7-0.1
					C183.2,0.7,186.6,0.6,189.9,0.4"/>
				<path id="XMLID_66_" class="st4" d="M185.9,0.4h3.1c-3.7,0.2-7.6,0.4-11.5,0.6c-8.9,0.4-17.9,0.8-26.4,1.4
					c-3.6,0.2-6.7,0.5-9.6,0.7c-2.4,0.2-3.9,0.5-4.5,0.7c-0.4,0.3,0.7,0.5,2.8,0.8c2.9,0.4,6.2,0.6,10.4,0.9c0.6,0,1.2,0.1,1.8,0.1
					c10.1,0.7,23,1.3,35.6,2c0.9,0,1.8,0.1,2.7,0.1c13.6,0.7,27.3,1.5,41.2,2.4c0.4,0,0.8,0.1,1.3,0.1c6.1,0.4,11.2,0.8,16.2,1.4
					c4.9,0.5,8,1,9.6,1.6c1.3,0.7,0.7,1.2-1.2,1.8c-2.3,0.7-5.4,1.2-9.6,1.9c-0.6,0.1-1.1,0.2-1.7,0.2c-5.2,0.7-11.5,1.4-18.3,2.2
					h-5.5c8.3-0.9,15.8-1.7,22.4-2.6c4.2-0.6,7.2-1.1,9.4-1.8c1.9-0.6,2.5-1,1.3-1.6c-1.4-0.6-4.3-1-8.8-1.5c-0.3,0-0.6-0.1-0.8-0.1
					c-4.7-0.5-10.3-0.9-16.1-1.3c-0.8,0-1.7-0.1-2.5-0.2c-13.2-0.9-28-1.6-41.1-2.3c-0.9,0-1.9-0.1-2.8-0.1c-12.9-0.7-24.6-1.3-35-2
					c-4.3-0.3-7.8-0.6-10.7-1c-2.2-0.3-3.4-0.5-2.9-0.9c0.7-0.3,2.3-0.5,4.9-0.8c3-0.3,6.2-0.5,10-0.7c8.5-0.5,17.6-0.9,26.6-1.4
					C179.5,0.7,182.8,0.5,185.9,0.4"/>
				<path id="XMLID_65_" class="st4" d="M181.9,0.4h3.1c-3.1,0.2-6.2,0.3-9.4,0.4c-9,0.4-18.1,0.8-26.6,1.4c-0.2,0-0.5,0-0.7,0
					c-3.6,0.2-6.6,0.5-9.4,0.7c-2.7,0.3-4.3,0.5-5,0.8c-0.5,0.3,0.6,0.6,2.9,0.9c2.9,0.4,6.5,0.7,10.8,1c11.1,0.8,23.9,1.5,37.8,2.2
					c14.2,0.8,29,1.5,43.5,2.5c6.4,0.5,11.6,0.9,16.8,1.4c0.3,0,0.6,0.1,0.8,0.1c4,0.4,6.5,0.9,7.7,1.4c1.1,0.6,0.5,1.1-1.4,1.6
					c-2.2,0.7-5.2,1.2-9.4,1.8c-6.8,0.9-14.5,1.8-23.1,2.7H215c9.5-1,18.1-1.9,25.4-2.9c4.1-0.6,7.1-1.1,9.3-1.7
					c1.7-0.5,2.4-0.9,1.4-1.5c-1.2-0.5-3.8-0.9-7.7-1.4c-5-0.5-10.1-0.9-16.2-1.4c-14.4-1-29.1-1.8-43.3-2.5c-0.9,0-1.9-0.1-2.8-0.1
					c-13-0.7-24.9-1.3-35.3-2.1c-4.5-0.3-8.2-0.6-11.2-1c-2.5-0.3-3.6-0.6-3-1c0.8-0.3,2.5-0.6,5.4-0.9c3.1-0.3,6.4-0.5,10.5-0.8
					c0.5,0,1-0.1,1.5-0.1c7.8-0.5,17-0.9,25.3-1.3c0.6,0,1.1-0.1,1.7-0.1C178,0.6,180,0.5,181.9,0.4"/>
				<path id="XMLID_64_" class="st4" d="M177.9,0.4h3.1c-2.4,0.1-4.8,0.2-7.2,0.3c-0.6,0-1.2,0.1-1.7,0.1c-8.6,0.4-17,0.8-25.2,1.3
					c-0.3,0-0.5,0-0.8,0c-3.8,0.2-6.9,0.5-9.9,0.7c-0.2,0-0.3,0-0.5,0.1c-2.7,0.3-4.3,0.5-5,0.8c-0.6,0.4,0.5,0.7,3.1,1
					c0.2,0,0.3,0,0.5,0.1c2.7,0.4,6.6,0.7,10.8,1c11.1,0.8,24.1,1.5,38.2,2.2c14.2,0.8,28.9,1.6,43.2,2.5c6,0.4,11.2,0.8,16.1,1.3
					c3.8,0.4,6.4,0.8,7.5,1.3c0.9,0.6,0.3,1-1.4,1.5c-2.1,0.6-5.1,1.1-9.2,1.7c-0.6,0.1-1.1,0.1-1.7,0.2c-6.8,0.9-15.4,1.8-24.4,2.7
					h-5.5c10.7-1.1,20.4-2,28.6-3.1c3.9-0.5,6.9-1,9.1-1.6c1.6-0.5,2.2-0.8,1.4-1.4c-1-0.4-3.3-0.8-6.7-1.2
					c-4.8-0.5-9.8-0.9-15.5-1.3c-14.2-1-28.9-1.8-43-2.5c-0.9-0.1-1.9-0.1-2.8-0.2c-13.2-0.7-25.2-1.4-35.7-2.1
					c-4.8-0.4-8.5-0.7-11.6-1.1c-0.2,0-0.3-0.1-0.5-0.1c-2.4-0.3-3.3-0.6-2.6-1c0,0,0.1,0,0.2-0.1c0.8-0.3,2.9-0.6,5.8-0.9
					c3.3-0.3,6.7-0.5,11-0.8c0.5,0,1.1-0.1,1.6-0.1c7.9-0.5,17.1-0.9,25.5-1.3C174.2,0.6,176.1,0.5,177.9,0.4"/>
				<path id="XMLID_63_" class="st4" d="M173.7,0.4h3.2c-1.7,0.1-3.3,0.2-5,0.2c-0.6,0-1.1,0.1-1.7,0.1C161.5,1.1,153,1.5,144.7,2
					c-4.3,0.2-7.7,0.5-11,0.8c-3.2,0.3-5.1,0.6-6,1c-0.7,0.4,0.4,0.7,3.2,1.1c3.1,0.4,6.8,0.7,11.7,1.1c0.6,0.1,1.2,0.1,1.9,0.1
					C154.7,6.8,168,7.5,181,8.2c14.1,0.8,28.8,1.6,43,2.5c0.4,0,0.8,0.1,1.2,0.1c5.2,0.4,9.9,0.7,14.2,1.2c3.3,0.4,5.6,0.7,6.5,1.1
					c0.8,0.5,0.1,0.9-1.4,1.3c-2.2,0.6-5.1,1.1-9,1.6c-0.6,0.1-1.1,0.1-1.6,0.2c-7.6,1-17.5,2-27.7,3h-5.5
					c11.9-1.2,22.8-2.2,31.8-3.4c3.7-0.5,6.6-1,8.8-1.5c1.5-0.4,2.1-0.8,1.5-1.2c-0.8-0.4-2.9-0.7-5.8-1c-4.6-0.5-9.3-0.9-14.8-1.3
					c-14.1-1-28.7-1.8-42.8-2.5c-14.3-0.8-27.5-1.5-38.9-2.3c-5.1-0.4-8.8-0.7-12-1.1c-0.2,0-0.4-0.1-0.5-0.1
					c-2.6-0.4-3.5-0.7-2.7-1.1c0.1,0,0.1-0.1,0.2-0.1c0.9-0.4,3.2-0.7,6.3-0.9c0.2,0,0.4,0,0.6-0.1c3.1-0.3,6.8-0.5,10.8-0.8
					c9-0.5,18.2-1,27.5-1.4C171.6,0.5,172.7,0.4,173.7,0.4"/>
				<path id="XMLID_62_" class="st4" d="M169.7,0.4h3.1c-0.9,0-1.8,0.1-2.7,0.1c-0.6,0-1.1,0.1-1.7,0.1c-8.9,0.4-17.3,0.8-25.9,1.3
					c-4.4,0.3-8,0.5-11.5,0.8c-3.5,0.3-5.5,0.6-6.6,1c-0.1,0-0.1,0.1-0.1,0.1c-0.8,0.4,0.8,0.8,3.4,1.1c0.2,0,0.4,0,0.6,0.1
					c2.9,0.4,7,0.7,11.6,1.1c0.7,0,1.3,0.1,2,0.1c10.4,0.8,23.8,1.5,37,2.2c14,0.8,28.6,1.5,42.7,2.5c5.4,0.4,10.1,0.7,14.6,1.3
					c2.8,0.3,4.9,0.6,5.6,1c0.6,0.4,0,0.8-1.5,1.2c-2.2,0.5-5,1-8.7,1.5c-9.2,1.2-20.4,2.3-32.6,3.4h-5.4
					c13.1-1.3,25.3-2.4,35.1-3.6c3.6-0.5,6.3-0.9,8.5-1.4c1.3-0.4,2-0.7,1.5-1.1c-0.6-0.3-2.5-0.6-4.9-0.8c-4.2-0.5-8.9-0.9-14-1.2
					c-0.8,0-1.5-0.1-2.3-0.2c-12.7-0.9-27.3-1.7-40.1-2.4c-14.5-0.8-27.8-1.5-39.3-2.4c-5.2-0.4-9.1-0.7-12.4-1.2
					C125.2,5,125,5,124.9,5c-2.8-0.4-3.7-0.8-2.8-1.2c0.1,0,0.1-0.1,0.2-0.1c1-0.4,3.5-0.7,6.9-1c3.6-0.3,7.2-0.6,11.8-0.9
					c9.2-0.5,18.4-1,27.8-1.4L169.7,0.4z"/>
				<path id="XMLID_61_" class="st4" d="M165.5,0.4h3.2l-0.3,0c-0.6,0-1.1,0.1-1.7,0.1c-8.9,0.4-17.5,0.8-26.2,1.3
					c-4.6,0.3-8.3,0.5-11.9,0.9c-3.8,0.4-6.1,0.7-7.2,1.1c-0.1,0-0.1,0.1-0.2,0.1c-0.9,0.4,0.8,0.8,3.5,1.2
					c3.3,0.5,7.2,0.8,12.5,1.2c11.6,0.8,24.9,1.6,39.4,2.4c0.9,0.1,1.9,0.1,2.8,0.2c13.1,0.7,26.5,1.5,39.5,2.4
					c0.4,0,0.7,0.1,1.1,0.1c4.7,0.3,8.9,0.7,12.7,1.1c2.2,0.3,4.1,0.5,4.7,0.8c0.5,0.4-0.2,0.7-1.5,1c-2.1,0.5-4.8,0.9-8.4,1.4
					c-9.9,1.3-22.4,2.4-35.8,3.7h0h-5.6c1-0.1,2-0.2,3-0.3c13.2-1.2,25.7-2.4,35.6-3.6c3.4-0.4,6.1-0.8,8.1-1.3
					c1.2-0.3,1.9-0.6,1.4-0.9c-0.4-0.2-2.2-0.5-4-0.7c-4-0.4-8.4-0.8-13.2-1.2c-0.7,0-1.5-0.1-2.2-0.2c-12.7-0.9-27.1-1.7-39.9-2.4
					C160.1,8,146.7,7.2,135,6.4c-5.4-0.4-9.3-0.8-12.7-1.2c-0.2,0-0.4-0.1-0.5-0.1c-7.9-1.2,0.5-2.1,4.8-2.5c0.2,0,0.4,0,0.7-0.1
					c3.4-0.3,7.3-0.6,11.6-0.8C147.7,1.2,156.5,0.8,165.5,0.4"/>
				<path id="XMLID_60_" class="st4" d="M161.4,0.4h3.1c-8.9,0.4-17.4,0.8-26.1,1.3c-0.3,0-0.6,0-0.8,0.1c-4.5,0.3-8,0.5-11.6,0.8
					c-0.2,0-0.5,0.1-0.7,0.1c-5.3,0.5-11.8,1.3-3.7,2.5c0.2,0,0.4,0.1,0.6,0.1c3.1,0.4,7.3,0.8,12.2,1.1c11.7,0.9,25.1,1.6,39.9,2.4
					c13.8,0.8,28.3,1.6,42,2.6c4.8,0.4,9.2,0.7,13.1,1.2c1.6,0.2,3.4,0.4,3.8,0.6c0.4,0.3-0.3,0.6-1.4,0.9c-2,0.5-4.7,0.9-8.1,1.3
					c-9.9,1.2-22.2,2.4-35.4,3.6c-1.3,0.1-2.6,0.2-4,0.4h-5.5c2.3-0.2,4.6-0.4,6.8-0.6c13.1-1.2,25.4-2.3,35.2-3.5
					c1.8-0.2,10-1.2,9.1-2c-0.9-0.5-13.5-1.5-15.6-1.6c-13.7-1-28-1.8-41.8-2.6c-0.9-0.1-1.9-0.1-2.8-0.2
					c-13.9-0.8-26.2-1.5-37.4-2.3c-0.3,0-0.7,0-1-0.1c-5.2-0.4-8.9-0.8-12.1-1.2c-0.2,0-0.4-0.1-0.6-0.1c-8.3-1.3,1-2.2,5.4-2.7
					c4-0.4,7.9-0.6,12.8-0.9c0.6,0,1.2-0.1,1.7-0.1C145.8,1.1,153.8,0.7,161.4,0.4"/>
				<path id="XMLID_59_" class="st4" d="M157.3,0.4h3.2c-8.2,0.4-16.1,0.7-24.2,1.2c-0.3,0-0.6,0-0.9,0.1c-4.6,0.3-8.3,0.5-12.1,0.9
					c-5.2,0.5-13.9,1.4-5,2.8c0.2,0,0.4,0.1,0.6,0.1c3.1,0.4,7.5,0.8,12.6,1.2c0.7,0.1,1.4,0.1,2.1,0.2c10.9,0.8,24.6,1.6,38.2,2.3
					c13.8,0.8,28.1,1.6,41.8,2.6c13.3,1,22.8,1.3,6.2,3.5c-0.5,0.1-1,0.1-1.5,0.2c-9.1,1.1-21.6,2.2-33.6,3.3
					c-2.6,0.2-5.2,0.5-7.7,0.7h-5.5c3.6-0.3,7.2-0.6,10.6-1c1-0.1,1.9-0.2,2.8-0.2c11.9-1.1,23-2.1,32.1-3.2c15.9-2,6.6-2.2-5.3-3.1
					c-13.6-1-27.9-1.8-41.5-2.6c-1,0-1.9-0.1-2.8-0.2c-14.1-0.8-26.5-1.5-37.8-2.4c-0.3,0-0.7-0.1-1-0.1c-5.3-0.4-9.1-0.8-12.5-1.2
					c-9.3-1.5,0-2.4,5.5-2.9c4.2-0.4,8.2-0.6,13.3-0.9C142.3,1.1,149.7,0.7,157.3,0.4"/>
				<path id="XMLID_58_" class="st4" d="M153.3,0.4h3.1c-7.4,0.3-14.7,0.7-22.1,1.1c-0.3,0-0.6,0-0.9,0.1c-4.8,0.3-8.7,0.6-12.5,0.9
					c-0.3,0-0.5,0.1-0.7,0.1c-5.7,0.5-13.8,1.5-4.9,2.9c3.6,0.5,7.8,0.9,13.6,1.3c12.1,0.9,25.6,1.7,40.7,2.5
					c0.9,0.1,1.9,0.1,2.8,0.2c12.8,0.7,26,1.5,38.6,2.4c11.9,0.9,20.5,1.1,5.1,3c-9.7,1.2-22,2.3-34.8,3.4c-3.8,0.3-7.7,0.7-11.5,1
					h-5.6c4.9-0.4,9.8-0.9,14.5-1.3c12.8-1.1,24.9-2.2,34.6-3.3c14.1-1.7,7.2-1.8-4.3-2.7c-13.4-1-27.7-1.8-41.2-2.6
					c-15.3-0.9-28.8-1.7-41-2.6c-5.9-0.5-10.2-0.9-13.8-1.4c-0.2,0-0.4-0.1-0.6-0.1c-9.2-1.5,2.3-2.6,6.7-3c4.3-0.4,8.5-0.7,13.8-1
					C139.6,1,146.4,0.7,153.3,0.4"/>
				<path id="XMLID_57_" class="st4" d="M215.4,0.4c-7.3,0.5-15.3,0.9-24.3,1.4c-8,0.4-16.7,0.8-24.3,1.3c-10.3,0.7-10,0.7,0.5,1.4
					c0.5,0,1,0.1,1.5,0.1c9.4,0.6,21.5,1.2,32.8,1.7c15.3,0.7,30.5,1.5,46,2.5c0.5,0,0.9,0.1,1.4,0.1c7.9,0.5,14.5,1,21.3,1.7
					c8.9,0.9,14.2,1.7,17.9,2.8c0.2,0.1,0.3,0.1,0.5,0.2c2.6,0.9,2.1,1.8,0.1,2.7c-2.4,1-5.7,1.7-10.9,2.6c-0.6,0.1-1.3,0.2-1.9,0.3
					c-0.3,0.1-0.7,0.1-1,0.2h-5c1.5-0.2,3-0.5,4.5-0.7c0.3-0.1,0.6-0.1,0.9-0.2c4.7-0.8,7.7-1.5,9.9-2.4c0.1-0.1,0.2-0.1,0.4-0.2
					c2-0.9,1.7-1.7-0.8-2.6c-3.3-1.1-8.4-1.8-16.9-2.6c-7.2-0.7-13.9-1.2-22.2-1.7c-1-0.1-1.9-0.1-2.9-0.2
					C229,7.9,213.8,7.1,200,6.4c-12.3-0.6-24.4-1.2-34.6-1.8C154.1,3.9,153.9,3.8,165,3c7.7-0.5,16.4-0.9,24.6-1.3
					c0.5,0,1.1-0.1,1.7-0.1c7.8-0.4,14.8-0.8,21.2-1.2H215.4z"/>
				<path id="XMLID_56_" class="st5" d="M184,0.4c-3.1,0.2-7.3,0.3-7.3,0.3c0.5,0,1.4,0.1,1.4,0.1c3-0.1,6-0.3,8.8-0.4H184z"/>
				<path id="XMLID_55_" class="st5" d="M169.1,1.1c-3.1,0.2-6.3,0.3-9.5,0.5c0.5,0,1.5,0.1,1.5,0.1c3.2-0.2,6.3-0.3,9.4-0.5
					C170.1,1.2,169.1,1.1,169.1,1.1"/>
				<path id="XMLID_54_" class="st5" d="M152.4,1.9c-1.3,0.1-2.6,0.2-3.9,0.2c-1.7,0.1-3.3,0.2-4.8,0.3c0.6,0,1.8,0.1,1.8,0.1
					c1.5-0.1,3.1-0.2,4.6-0.3c1.3-0.1,2.5-0.2,3.9-0.2C153.4,2,152.4,1.9,152.4,1.9"/>
				<path id="XMLID_53_" class="st5" d="M137.5,3c-2.4,0.3-3.8,0.5-4.4,0.8c0,0,0,0,0,0c0.8,0,2.4,0,2.4,0c0,0,0,0,0,0
					c0.6-0.3,1.9-0.5,4.1-0.7C138.9,3,137.5,3,137.5,3"/>
				<path id="XMLID_52_" class="st5" d="M134.4,4.5c0.5,0.1,1,0.2,1.6,0.2c1.5,0.2,3.1,0.4,5.1,0.5c0.7,0,2.1-0.1,2.1-0.1
					c-1.9-0.2-3.5-0.3-4.9-0.5c-0.6-0.1-1.1-0.1-1.5-0.2C136,4.4,134.4,4.5,134.4,4.5"/>
				<path id="XMLID_51_" class="st5" d="M148.6,5.8c3.2,0.2,6.5,0.4,10,0.6c0.6-0.1,1.8-0.1,1.8-0.1c-3.5-0.2-6.7-0.4-9.9-0.6
					C149.9,5.7,148.6,5.8,148.6,5.8"/>
				<path id="XMLID_50_" class="st5" d="M168,7c4.1,0.2,12.8,0.7,12.8,0.7c0.6-0.1,1.7-0.1,1.7-0.1c-4.4-0.2-8.6-0.5-12.7-0.7
					C169.1,6.9,168,7,168,7"/>
				<path id="XMLID_49_" class="st5" d="M191.6,8.2c4.5,0.2,9,0.5,13.6,0.7c0.6-0.1,1.6-0.1,1.6-0.1c-4.6-0.3-13.6-0.7-13.6-0.7
					C192.6,8.1,191.6,8.2,191.6,8.2"/>
				<path id="XMLID_48_" class="st5" d="M215.9,9.6c4.2,0.3,8.3,0.5,12.4,0.8l0.1,0c0.6-0.1,1.9-0.2,1.9-0.2l-0.1,0
					c-4.2-0.3-8.3-0.5-12.6-0.8C217,9.5,215.9,9.6,215.9,9.6"/>
				<path id="XMLID_47_" class="st5" d="M239.2,11.2c2,0.2,3.8,0.3,5.7,0.5c1.9,0.2,3.3,0.4,4.8,0.6c0.9,0,2.8-0.1,2.8-0.1
					c-1.6-0.3-3.2-0.5-5.2-0.7c-1.9-0.2-3.8-0.4-6-0.6C240.6,11.1,239.2,11.2,239.2,11.2"/>
				<path id="XMLID_46_" class="st5" d="M253.6,13.5c0.4,0.5-0.3,0.9-1.8,1.3c-0.2,0.1-0.4,0.1-0.5,0.1c1.1,0,3.3,0.1,3.3,0.1
					c0,0,0.5-0.2,0.5-0.2c1.6-0.5,2.2-0.9,1.7-1.4C255.8,13.5,253.6,13.5,253.6,13.5"/>
				<path id="XMLID_45_" class="st5" d="M245.6,16.1c-1,0.2-2,0.3-3.1,0.4c-2.3,0.3-4.6,0.6-7.1,0.9c1,0.1,3,0.2,3,0.2
					c2.6-0.3,5-0.6,7.2-1c1.1-0.2,2.1-0.3,3.1-0.5C247.7,16.2,245.6,16.1,245.6,16.1"/>
				<path id="XMLID_44_" class="st5" d="M225.3,18.6c-2.2,0.2-4.4,0.5-6.6,0.7h5.5c1.4-0.2,2.8-0.3,4.1-0.5
					C227.3,18.8,225.3,18.6,225.3,18.6"/>
				<path id="XMLID_43_" class="st5" d="M218.7,0.4L218.7,0.4c-7.7,0.5-16.2,1-25.8,1.5c-7.9,0.4-16.4,0.8-24,1.3
					c-9.1,0.6-8.7,0.6,0.5,1.2c10,0.6,21.9,1.2,33.9,1.8c15.4,0.7,30.6,1.5,46.2,2.5c8.8,0.5,15.8,1.1,23.5,1.8
					c9.4,0.9,15.1,1.7,19.1,2.9c3.2,1.1,3.2,1.9,1,3.1c-2.3,1-5.8,1.8-11,2.7c-0.4,0.1-0.9,0.1-1.3,0.2h-4.4
					c0.9-0.1,1.8-0.3,2.6-0.4c0.3-0.1,0.6-0.1,0.9-0.2c4.7-0.8,7.9-1.6,10-2.5c2.2-1.1,2.2-1.9-0.7-2.9c-0.2-0.1-0.4-0.1-0.7-0.2
					c-3.3-1-9.5-1.8-17.5-2.6c-0.5,0-1-0.1-1.4-0.1c-6.6-0.6-13.9-1.1-21.5-1.6c-15.5-1-30.7-1.7-46-2.5
					c-12.1-0.6-24.1-1.2-34.2-1.8c-9.9-0.6-10.6-0.7-0.5-1.3c7.7-0.5,16.3-0.9,24.3-1.3c0.6,0,1.1-0.1,1.7-0.1
					c8.5-0.4,16-0.8,22.9-1.3H218.7z"/>
				<path id="XMLID_42_" class="st5" d="M152.4,0.4c-6.7,0.3-13.4,0.6-20.1,1c-5.4,0.3-9.5,0.6-13.9,1c-5.5,0.5-16.1,1.6-6.3,3.1
					c3.7,0.5,8,0.9,13.9,1.4c0.7,0.1,1.4,0.1,2.2,0.2c11.2,0.8,25,1.6,38.9,2.4c13.5,0.8,27.8,1.6,41.2,2.6
					c11.2,0.9,17.9,0.9,4.1,2.6c-0.5,0.1-1,0.1-1.4,0.2c-8.9,1.1-21.2,2.1-33.1,3.1c-1,0.1-1.9,0.2-2.9,0.2
					c-4.1,0.4-8.2,0.7-12.3,1.1h-5c6.1-0.5,12.1-1.1,17.9-1.6c0.9-0.1,1.9-0.2,2.8-0.2c11.6-1,22.6-2,31.5-3
					c12.6-1.5,7.2-1.4-3.4-2.3c-0.7,0-1.4-0.1-2-0.2c-12.1-0.9-26.5-1.7-38.9-2.4c-0.9-0.1-1.9-0.1-2.8-0.2
					c-14.5-0.8-27.1-1.6-38.6-2.5c-0.4,0-0.7-0.1-1.1-0.1c-5.6-0.5-9.7-0.9-13-1.4c-0.2,0-0.4-0.1-0.6-0.1c-9.5-1.6,3-2.7,7.4-3.2
					c0.3,0,0.6-0.1,0.8-0.1c4-0.3,8.4-0.6,13.4-0.9c0.6,0,1.2-0.1,1.8-0.1c5.4-0.3,11.1-0.6,16.8-0.8H152.4z"/>
				<path id="XMLID_41_" class="st3" d="M151.5,19.3c-10.7,1.2-21.2,2.3-31.8,3.8c-0.6,0.1-1.2,0.2-1.7,0.2
					c-9.4,1.3-17,2.5-24.6,4.1c-10.3,2.2-31.7,7.2-12.9,14.4c0.4,0.2,0.8,0.3,1.2,0.5c6,2.2,14.7,4,24.8,6
					c22.3,4.1,47.4,7.5,75.8,11.5c24.1,3.4,50.1,6.9,73.9,11.2c18.8,3.5,26.4,2.9,5.3,8.7c-17.3,4.7-39,9.1-61.9,13.9
					c-1.7,0.4-3.5,0.7-5.2,1c-29.5,6.1-58.2,12-88.7,20.1c-1.1,0.3-2.2,0.6-3.2,0.8c-72.4,19.8-132.6,45.7-86.3,105.5
					c15.5,19.4,36.7,38.3,63.4,60.2h417.3c-2.6-1.2-5.2-2.5-7.8-3.7c-50.6-25.1-100-44.8-143.5-62.9c-2.5-1-5.1-2-7.5-3
					c-30.8-12.9-58.4-24-80.6-35.9c-29.3-15.2-28.1-17.5-1-28.7c1.2-0.5,2.4-1,3.5-1.5c21.4-8.2,47.7-15.7,69.8-21.9
					c28.2-8.2,51.6-15.2,70.7-23c9.6-4.2,15.9-7.6,19.9-12.1c4.1-4.9,3.8-8.6-2.1-13.5c-7.6-5.2-18.3-8.8-36-12.9
					c-14.2-3.1-27.2-5.4-43.4-7.7c-1.8-0.3-3.7-0.5-5.4-0.8c-25.6-3.8-53.5-7-78.9-9.8c-1.6-0.2-3.2-0.4-4.8-0.6
					c-19.9-2.3-39.5-4.5-56.3-7c-15.2-2.3-16-1.9-0.9-4.4c0.6-0.1,1.3-0.2,2-0.4c12.6-2,28.2-3.8,41.4-5.4c17.6-2.1,33-4.1,47.1-6.4
					c0.4-0.1,0.8-0.1,1.2-0.2l0.1,0H151.5z"/>
				<path id="XMLID_40_" class="st4" d="M263.1,19.3h5.2c-12,1.9-26.6,3.6-41.2,5.4c-15,1.8-30.7,3.6-44.8,5.8
					c-21.7,3.3-19.2,4,0.8,7.1c18.6,2.9,40.7,5.4,63,8c27.6,3.3,55.1,6.5,83,10.7c15,2.3,27.1,4.4,40,7.4c0.8,0.2,1.5,0.4,2.3,0.6
					c13.9,3.4,22.3,6.6,27.8,10.6c0.3,0.3,0.6,0.6,0.9,0.8c4.2,3.9,3.2,7.2-0.4,11.1c-0.2,0.3-0.5,0.5-0.8,0.7
					c-3.9,3.5-10.5,6.8-18.9,10.1c-18.9,7.4-42.4,13.9-70.1,21.4c-24.8,6.9-51.6,14.2-76.3,23.1c-34.7,13.8-38.4,18.3-3.8,39
					c1.2,0.7,2.4,1.5,3.6,2.1c22.2,12.3,53.4,26,85.4,39.7c39.1,17.3,80,35.6,124.8,58.3H428c-41.2-21.3-81.9-39.5-117.6-55.4
					c-2.6-1.2-5-2.4-7.4-3.5c-31.6-13.9-59.6-26.9-81.7-39.4c-35.1-21.8-31.9-28.3,5.8-42.1c1.3-0.5,2.7-0.9,4-1.4
					c22.7-8.2,50-15.2,73.1-21.6c1.7-0.4,3.4-0.9,5.1-1.3c25.5-6.8,47.1-12.8,64.8-19.6c9.1-3.6,15.1-6.7,19.4-10.4
					c0.2-0.2,0.5-0.4,0.7-0.7c3.6-3.8,3.3-6.9-0.7-10.7c-0.4-0.2-0.7-0.5-1-0.7c-4.9-3.8-14.8-6.9-27.4-9.9
					c-0.7-0.2-1.5-0.3-2.2-0.6C351.6,61,339.1,59,326,56.9c-27.8-4.2-55.2-7.4-82.6-10.7c-1.6-0.2-3.2-0.4-4.8-0.6
					c-20.9-2.5-41.4-4.9-58.8-7.6c-21.8-3.3-23.5-4.4-0.7-7.9c0.7-0.1,1.5-0.2,2.3-0.3c13.1-2.1,29.1-3.8,43.1-5.5
					C238.5,22.6,251.4,21,263.1,19.3"/>
				<path id="XMLID_39_" class="st4" d="M256.3,19.3h5.3c-11.5,1.7-24.2,3.2-37.9,4.9c-1,0.1-2,0.2-3,0.4c-14.5,1.7-29,3.4-42.5,5.4
					c-23,3.7-22,4.7,0.6,8.2c18.8,2.9,41.2,5.5,63.8,8.2c27.3,3.3,54.7,6.5,82.5,10.7c0.8,0.1,1.7,0.3,2.5,0.4
					c13.4,2.1,24.6,4.1,36.1,6.8c0.8,0.2,1.5,0.4,2.2,0.6c12.9,3.1,20.7,6.2,25.6,10c4.3,4.1,3.8,7.1-0.2,11.2
					c-0.3,0.2-0.5,0.4-0.7,0.7c-3.9,3.3-10.4,6.5-18.6,9.6c-18.9,7.2-42.4,13.5-69.8,20.8c-25.2,6.9-52.3,14-77.3,23.1
					c-38.6,13.8-41.7,20.9-6.5,43c23.8,13.6,54.6,27.8,89.3,43.4c35.9,15.9,73.6,33.3,114.5,54.4h-16.1
					c-37.6-19.9-74.5-36.9-107.1-51.6c-34.9-16.2-65.6-30.5-89.5-44.6c-36.2-23.6-32.1-32,8.7-46.1c1.4-0.5,2.8-0.9,4.2-1.5
					c23.1-8.3,50.6-15.2,74.1-21.5c27.2-7.2,50.7-13.4,69.5-20.5c0.6-0.2,1.1-0.4,1.6-0.6c8-3.2,13.6-6.1,17.6-9.4
					c0.2-0.2,0.4-0.4,0.6-0.7c3.5-3.5,3.4-6.4-0.2-10c-5-4-13-6.8-26.1-10c-0.7-0.1-1.5-0.3-2.2-0.5c-10.9-2.6-22.9-4.6-35.5-6.6
					c-1.7-0.3-3.4-0.5-5-0.8c-25-3.7-52.3-7-77-9.9c-23-2.7-45.6-5.4-64.5-8.3c-6.1-1-11.4-1.9-15.5-3c-1.6-0.5-3.3-1.1-3.1-1.6
					c0.5-0.7,2.2-1.2,4.5-1.8c4-1,8.5-1.8,13.7-2.6c0.8-0.1,1.5-0.2,2.3-0.4c13.4-2.1,29.4-3.8,43.7-5.5c1-0.1,2-0.2,3-0.4
					C235.6,22,246.4,20.7,256.3,19.3"/>
				<path id="XMLID_38_" class="st4" d="M249.5,19.3h5.2c-10.6,1.5-22.2,2.9-34.6,4.3c-15.6,1.8-31.5,3.6-46.2,5.8
					c-5.3,0.8-9.9,1.7-14,2.7c-2.4,0.6-4.1,1.2-4.6,1.9c-0.3,0.6,1.4,1.2,3.2,1.7c4.2,1.1,9.5,2.1,15.7,3.1c0.9,0.1,2,0.3,2.9,0.4
					c17.6,2.7,40.5,5.3,61.8,7.9c1.6,0.2,3.3,0.4,4.9,0.6c25.7,3.1,51.1,6.2,77,10.1c14,2.2,25.2,4.2,37.4,7.1
					c12.8,3.1,20.8,5.9,25.6,9.9c0.2,0.2,0.4,0.4,0.7,0.7c3.5,3.5,2.1,6.4-1.2,9.8c-0.2,0.2-0.5,0.4-0.7,0.6
					c-4,3.2-10.4,6.2-18.3,9.2c-18.8,7-42.4,13.1-69.5,20.3c-25.7,6.9-53,13.8-78.6,22.9c-41.3,14.3-46.1,22.9-9.4,47.1
					c1.2,0.8,2.5,1.6,3.7,2.3c22.2,13.3,53.4,27.4,85.7,42.6c32.9,14.9,67.3,31.2,104.3,50.7h-16.1c-34.1-18.3-67.4-34-97.1-47.8
					c-2.5-1.2-4.9-2.4-7.3-3.6c-32.3-15.5-60.1-28.9-82.3-42.6c-1.2-0.7-2.3-1.4-3.4-2.2c-36.5-25-23.7-34.6,15.3-48
					c1.4-0.5,2.9-1,4.4-1.5c23.6-8.1,51.3-15.1,75.2-21.3c26.8-7.1,50.4-13.1,69.2-19.9c8.5-3.3,14.5-6.1,18.8-9.5
					c0.2-0.2,0.5-0.4,0.7-0.6c3.4-3.3,3.5-6,0.3-9.3c-4.5-3.7-11.8-6.3-24-9.3c-0.7-0.2-1.4-0.3-2-0.5c-10.4-2.5-22.1-4.5-34.1-6.4
					c-27.5-4.2-54.6-7.5-81.6-10.7c-1.7-0.2-3.3-0.4-4.9-0.6c-21.8-2.6-42.5-5.1-60.5-7.9c-6.4-1.1-11.9-2-16.2-3.3
					c-2.1-0.6-3.8-1.3-3.5-2c0.6-0.8,2.5-1.4,5.2-2.1c4.3-1.1,9-1.9,14.6-2.8c14.9-2.2,30.8-4.1,46.5-5.8c1.1-0.1,2.1-0.2,3.2-0.4
					C230.9,21.7,240.6,20.5,249.5,19.3"/>
				<path id="XMLID_37_" class="st4" d="M242.6,19.3h5.3c-9.7,1.3-20.2,2.5-31.3,3.9c-1.1,0.1-2.2,0.3-3.2,0.4
					c-14.8,1.7-29.5,3.4-43.4,5.5c-5.7,0.8-10.5,1.7-14.8,2.8c-2.8,0.7-4.8,1.4-5.4,2.2c-0.4,0.8,1.4,1.5,3.6,2.2
					c4.4,1.2,10,2.2,16.4,3.3c1,0.1,2,0.3,3,0.4c17.8,2.8,40.9,5.5,62.5,8.1c1.6,0.2,3.3,0.4,4.9,0.6c25.5,3.1,50.7,6.2,76.6,10.2
					c0.8,0.1,1.6,0.3,2.4,0.4c12.3,2,22.8,3.9,33.5,6.4c0.6,0.2,1.3,0.4,2,0.5c11,2.8,17.7,5.4,21.5,8.7c0.2,0.2,0.4,0.4,0.6,0.6
					c3,3.2,1.7,5.9-1.7,9.1c-4.4,3.4-10.3,6.1-18.8,9.4c-1.1,0.4-2.2,0.8-3.3,1.2c-17.2,6.2-41.4,12.1-65.8,18.6
					c-26.1,6.8-53.6,13.8-79.9,22.8c-43.3,14.9-51.9,24.5-12.6,51.1c1.2,0.8,2.5,1.6,3.7,2.3c22.1,13.8,53.2,28.2,85.9,44.2
					c30,14.2,61.2,29.1,94.4,46.9h-16.4c-30.6-16.6-60.4-30.9-87.3-43.9c-2.5-1.2-4.9-2.4-7.2-3.6c-32.5-16.4-60.3-30-82.3-44.2
					c-41.4-28.4-29.1-38.9,15.3-54.2c26.6-8.9,54.3-16,80.7-22.6c1.7-0.4,3.4-0.9,5.1-1.3c24.6-6.3,46.1-11.9,63.6-18.1
					c0.5-0.2,1-0.4,1.6-0.6c7.5-2.9,12.9-5.5,16.9-8.5c3.8-3.3,4.6-5.8,1.5-9.2c-3.9-3.4-10.8-5.9-22-8.7c-0.7-0.1-1.3-0.3-1.9-0.4
					c-9.9-2.4-21.2-4.4-32.8-6.2c-27.4-4.3-54.4-7.6-81.1-10.8c-1.7-0.2-3.3-0.4-4.9-0.6c-22.2-2.7-43.1-5.2-61.3-8.1
					c-6.8-1.1-12.5-2.2-17-3.5c-2.6-0.8-4.5-1.5-4-2.4c0.7-0.9,2.9-1.6,6.1-2.5c4.5-1.1,9.4-1.9,15.4-2.9c0.8-0.1,1.6-0.2,2.5-0.4
					c13.7-2.1,29.9-3.8,44.5-5.5C224.1,21.6,233.7,20.5,242.6,19.3"/>
				<path id="XMLID_36_" class="st4" d="M235.6,19.3h5.5c-8.7,1.1-18.1,2.2-28,3.4c-1.1,0.1-2.2,0.2-3.2,0.4
					c-15,1.7-29.8,3.4-43.9,5.5c-0.4,0-0.8,0.1-1.2,0.2c-5.5,0.8-10.1,1.7-14.3,2.7c-3.4,0.8-5.6,1.6-6.4,2.5
					c-0.4,0.9,1.4,1.7,4.2,2.6c4.5,1.3,10.2,2.3,17.1,3.5c19.5,3.1,42.4,5.8,66.3,8.7c1.6,0.2,3.3,0.4,5,0.6
					c25.3,3.1,50.4,6.2,76,10.2c0.8,0.1,1.6,0.3,2.4,0.4c11.8,1.9,21.9,3.8,32,6.3c11,2.8,17.7,5.1,21.5,8.5c3,3.4,2.2,5.9-1.6,9.1
					c-0.2,0.2-0.5,0.4-0.7,0.5c-3.9,3-10.2,5.6-17.7,8.4c-1,0.4-2.1,0.7-3.2,1.1c-17.3,6-41.3,11.9-65.5,18.1
					c-1.7,0.4-3.4,0.9-5.2,1.3c-25.1,6.3-50.7,12.9-75.8,21.3c-45.1,15.6-58,26.2-16.3,55.2c1.2,0.8,2.5,1.6,3.8,2.4
					c21.9,14.5,53.1,29,85.8,45.7c27,13.4,55.1,27.1,84.7,43.1h-16.8c-26.9-14.7-52.6-27.5-77.3-40.2c-2.5-1.2-4.9-2.4-7.3-3.5
					c-32.6-17.1-60.3-30.9-82.3-45.8c-43.3-30.8-27.2-42.4,19.2-58.3c27.1-8.8,55-16,81.8-22.5c1.7-0.4,3.4-0.9,5.1-1.3
					c24.4-6,45.7-11.6,63.3-17.5c0.5-0.2,0.9-0.4,1.5-0.6c7.3-2.7,12.7-5.2,16.6-8.1c0.2-0.2,0.4-0.3,0.6-0.5c3.4-2.7,3.8-5.1,1.3-8
					c-3.4-3.1-9.8-5.3-19.9-7.9c-0.6-0.1-1.2-0.3-1.8-0.4c-9.5-2.4-20.4-4.3-31.5-6.1c-1.6-0.2-3.2-0.5-4.9-0.7
					c-24.5-3.8-51.6-7-75.7-10c-24.2-3.1-47.2-5.8-66.9-8.9c-0.5-0.1-1-0.2-1.5-0.2c-6.6-1.1-11.9-2.2-16.3-3.5
					c-3.2-0.9-5.2-1.8-4.6-2.9c0.9-1.1,3.2-1.8,7.1-2.8c4.9-1.2,10-2.1,16.2-3c0.8-0.1,1.7-0.2,2.6-0.4c13.8-2.1,30.1-3.8,44.9-5.5
					C219.2,21.3,227.7,20.3,235.6,19.3"/>
				<path id="XMLID_35_" class="st4" d="M228.5,19.3h5.3c-7.6,1-15.8,1.9-24.3,2.9c-1.1,0.1-2.1,0.2-3.1,0.4
					c-15.1,1.7-30.2,3.4-44.4,5.5c-6.3,1-11.4,1.8-16.4,3c-4,0.9-6.4,1.7-7.3,2.9c-0.6,1.2,1.4,2,4.7,3c4.9,1.4,10.7,2.6,18,3.7
					c19.8,3.2,42.8,5.9,67.1,9c1.6,0.2,3.3,0.4,4.9,0.6c25,3.1,50,6.2,75.5,10.2c0.8,0.1,1.5,0.3,2.3,0.3
					c11.3,1.9,21.1,3.7,30.6,6.1c9.9,2.6,16.1,4.8,19.4,7.8c2.7,3.1,1.7,5.4-2,8.3c-4.2,3.1-9.9,5.6-17.9,8.5
					c-1.1,0.4-2.1,0.8-3.2,1.1c-17.4,5.8-41.1,11.7-65.2,17.6c-1.7,0.4-3.5,0.9-5.2,1.3c-25.4,6.2-51.3,13-76.9,21.2
					c-47.1,16.1-63.8,28-20.2,59.3c1.2,0.9,2.5,1.6,3.9,2.4c21.6,15,52.7,30.4,85.5,47.3c24,12.4,48.9,25,75,39.2h-16.7
					c-23.7-13.2-46.8-25-67.9-36.3c-35.6-18.6-65.9-34.4-89.2-51c-1.2-0.8-2.4-1.6-3.5-2.4c-42.6-31.7-16.9-44.9,26.9-59.9
					c27.6-8.7,55.8-15.7,82.9-22.4c26.1-6.3,49.2-12.1,68.1-18.3c7.8-2.8,13.5-5.1,17.6-8.2c3.5-2.7,4.5-4.9,2.1-7.8
					c-0.2-0.1-0.3-0.3-0.5-0.5c-2.6-2.5-9.3-4.7-17.4-6.8c-0.6-0.1-1.1-0.3-1.7-0.4c-9-2.2-19.5-4.1-30.4-5.9
					c-26.8-4.2-53.7-7.5-79.9-10.8c-1.6-0.2-3.3-0.4-4.9-0.6c-23.1-2.9-44.3-5.5-62.9-8.5c-7.6-1.3-13.5-2.4-18.6-3.9
					c-3.7-1.1-5.6-2-4.9-3.3c1-1.2,3.6-2,7.9-3.1c5.2-1.2,10.7-2.1,17.2-3.1c0.8-0.1,1.7-0.3,2.6-0.4c14-2,30.4-3.8,45.3-5.5
					c1-0.1,2.1-0.2,3.1-0.4C216.5,20.7,222.7,20,228.5,19.3"/>
				<path id="XMLID_34_" class="st4" d="M221.4,19.3h5.6c-6.7,0.8-13.8,1.6-20.9,2.4c-16.2,1.8-32.6,3.7-48,5.9
					c-6.6,1-12.1,2-17.4,3.2c-4.4,1.1-7,2-8.2,3.2c-0.7,1.3,1.2,2.3,5,3.4c5.2,1.5,11.2,2.7,18.8,4c1.1,0.1,2.1,0.3,3.2,0.5
					c18.4,3,41.9,5.8,64.7,8.7c1.6,0.2,3.2,0.4,4.9,0.6c24.8,3.1,49.7,6.3,74.8,10.2c0.8,0.1,1.5,0.2,2.3,0.3
					c11,1.8,20.3,3.7,29.5,5.9c9,2.4,14.6,4.3,17.4,7.1c2.3,2.9,1.3,5-2.2,7.6c-4.1,3-9.8,5.3-17.5,8.1c-1,0.4-2,0.7-3.1,1.1
					c-17.4,5.7-41.1,11.4-64.9,17.1c-27.2,6.7-55.5,13.6-83.1,22.4c-48.6,16.6-70.4,29.5-24.4,63.4c1.2,0.8,2.5,1.7,3.8,2.6
					c21.5,15.6,52.4,31.6,85.3,48.8c2.4,1.2,4.8,2.4,7.3,3.6c18.8,10.2,38.1,20.6,57.9,31.7h-16.7c-20.4-11.6-40.2-22.3-58.3-32.5
					c-35.8-18.8-65.9-35.3-88.9-52.5c-1.3-0.8-2.5-1.7-3.6-2.6c-23.7-18.1-32.4-34.2-2.3-50.5c10.3-5,21-9,33.9-13.4
					c28-8.6,56.5-15.5,84-22.2c25.8-6.1,48.9-11.7,67.6-17.8c7.6-2.5,13.1-4.9,17.1-7.7c3.4-2.4,4.5-4.4,2.4-7.1
					c-2.5-2.6-7.8-4.4-16-6.6c-0.5-0.1-1.1-0.3-1.5-0.4c-8.6-2.1-18.7-4-29.3-5.8c-1.5-0.2-3-0.5-4.5-0.7
					c-24-3.8-50.9-7.1-74.6-10.1c-1.7-0.2-3.4-0.4-5-0.6c-23.4-2.9-44.8-5.6-63.5-8.7c-7.8-1.3-14.2-2.6-19.5-4.1
					c-4.1-1.2-6.1-2.3-5.2-3.7c1.3-1.3,4.1-2.3,8.9-3.5c5.5-1.2,11.2-2.2,18.2-3.2c15.5-2.3,32-4.1,48.3-5.9
					C209.7,20.6,215.7,20,221.4,19.3"/>
				<path id="XMLID_33_" class="st4" d="M214.1,19.3h5.7c-5.6,0.6-11.3,1.3-17.1,1.9c-16.4,1.8-32.9,3.7-48.4,5.9
					c-0.5,0-0.9,0.1-1.3,0.2c-6.6,1-12.1,2-17.1,3.1c-4.9,1.2-7.8,2.2-9.1,3.6c-1,1.5,1.1,2.5,5.3,3.9c5.4,1.6,11.8,2.8,19.7,4.1
					c20.1,3.3,43.5,6.3,68.8,9.4c25.9,3.3,52.7,6.7,79,10.8c11.6,2,21.1,3.7,30.5,6.1c0.5,0.1,1,0.3,1.5,0.4c7.3,1.9,11.8,3.8,14,6
					c1.9,2.6,0.8,4.5-2.5,6.9c-4,2.9-9.5,5.1-17.1,7.6c-18.7,6.2-41.7,11.7-67.5,17.7c-27.5,6.8-56.1,13.6-84.2,22.2
					c-13.1,4.4-23.8,8.4-34.4,13.5c-33.2,18-19.8,35,5.3,54.1c22.8,17.3,53,33.9,88.7,52.9c18,10.1,36.6,20.4,55.7,31.5h-17.3
					c-16.7-9.8-32.9-19-48.6-27.9c-2.4-1.4-4.8-2.9-7.1-4.3c-32.9-17.9-60.3-33.9-81.4-50.3c-1.2-1-2.4-2-3.5-3
					c-45.6-35.3-10.8-52.4,36.4-67.6c1.7-0.5,3.3-1,5-1.5c25.7-8,54.7-14.5,80.1-20.6c25.5-6,48.4-11.3,67-17.4
					c7.5-2.5,12.9-4.6,16.9-7.3c3.1-2.2,4.3-4,2.5-6.5c-2.1-2.3-6.9-3.9-14.1-5.9c-9-2.3-18.4-4-29.5-5.9
					c-26.2-4.2-52.9-7.6-78.7-10.9c-1.7-0.2-3.4-0.4-5.1-0.6c-23.7-3-45.3-5.8-64.2-8.9c-8.2-1.5-14.8-2.7-20.3-4.4
					c-4.5-1.5-6.6-2.6-5.5-4.2c1.4-1.4,4.5-2.5,9.8-3.7c5.7-1.3,11.7-2.3,19.1-3.4c0.9-0.1,1.8-0.2,2.8-0.4
					c14.2-2.1,30.9-3.8,46-5.5c1-0.1,2.1-0.2,3.1-0.4C206.9,20.1,210.6,19.7,214.1,19.3"/>
				<path id="XMLID_32_" class="st4" d="M206.7,19.3h5.6c-4.3,0.5-8.7,1-13.1,1.4c-1.1,0.1-2.1,0.3-3.1,0.4
					c-15.7,1.7-31,3.4-45.8,5.6c-0.5,0-0.9,0.1-1.4,0.2c-6.9,1-12.6,2-17.9,3.2c-0.3,0.1-0.6,0.1-0.9,0.2c-5,1.2-7.8,2.3-9.1,3.6
					c-1.2,1.6,1,2.8,5.5,4.3c0.3,0.1,0.6,0.2,0.9,0.3c4.9,1.5,12,2.8,19.6,4.1c20.2,3.3,43.8,6.4,69.4,9.6
					c25.7,3.3,52.5,6.7,78.6,10.9c10.9,1.8,20.3,3.5,29.2,5.8c6.9,1.9,11.6,3.5,13.6,5.7c1.6,2.4,0.5,4.2-2.6,6.3
					c-3.9,2.7-9.3,4.8-16.7,7.2c-1,0.3-2,0.6-3.1,0.9c-17.1,5.5-40.4,10.8-63.8,16.3c-27.9,6.7-56.8,13.4-85.3,22.2
					c-0.9,0.3-1.7,0.5-2.5,0.8c-53.2,17.2-77.9,34-31.7,70.9c22.8,17.5,52.6,34.9,88.4,55c2.3,1.4,4.8,2.9,7.2,4.3
					c12.8,7.1,25.9,14.6,39.3,22.4h-17.3c-13.6-8.2-26.8-15.9-39.7-23.2c-35.8-20.9-65.5-38.9-88-56.7
					c-47.8-39.8-17.6-57.8,38.3-74.9c1.7-0.5,3.5-1,5.3-1.6c26-8,55.3-14.5,81-20.5c1.7-0.4,3.3-0.8,5-1.2
					c23.3-5.5,44.1-10.3,61.3-15.8c7.2-2.3,12.6-4.4,16.5-6.9c2.8-2,4-3.6,2.6-5.8c-1.8-1.9-6-3.4-12.2-5.1
					c-8.7-2.2-17.8-3.9-28.3-5.7c-25.8-4.2-52.5-7.7-78.2-10.9c-1.7-0.2-3.4-0.4-5.1-0.7c-23.9-3.1-45.7-5.9-64.8-9.1
					c-8.8-1.5-15.5-2.9-21.2-4.6c-0.3-0.1-0.6-0.2-0.9-0.3c-4.4-1.5-6-2.7-4.8-4.4c0.1-0.1,0.2-0.2,0.3-0.3
					c1.4-1.4,5.3-2.6,10.5-3.8c6-1.3,12.2-2.4,19.9-3.5c1-0.1,2-0.3,2.9-0.4c14.4-2.1,31.1-3.8,46.4-5.5
					C200.1,20,203.4,19.7,206.7,19.3"/>
				<path id="XMLID_31_" class="st4" d="M199.2,19.3h5.8c-3,0.3-6,0.7-9,1c-1,0.1-2.1,0.2-3.1,0.4c-15.9,1.7-31.3,3.4-46.4,5.6
					c-7.8,1.1-14,2.1-20.1,3.5c-5.9,1.4-9.3,2.5-11,4.1c-1.4,1.8,0.8,3.1,5.7,4.8c5.7,1.8,12.4,3.1,21.3,4.6
					c1.1,0.2,2.3,0.4,3.4,0.6c18.8,3.2,42.9,6.2,66.6,9.2c25.6,3.3,52.3,6.7,78.1,10.9c0.7,0.1,1.4,0.3,2.1,0.4
					c9.5,1.6,18,3.2,25.9,5.2c5.9,1.7,10.1,3.1,11.8,5c1.4,2.2,0.2,3.8-2.6,5.7c-4,2.4-9.3,4.5-16.4,6.8c-1,0.3-2,0.6-3,0.9
					c-17,5.4-40.3,10.5-63.3,15.9c-1.7,0.4-3.5,0.8-5.2,1.2c-26.9,6.3-54,12.5-81.3,20.8c-56.7,17.3-87.3,35.4-39.6,76
					c22.6,17.7,52.2,35.9,88.1,57.1c2.3,1.4,4.6,2.9,7.1,4.3c10,5.6,20.2,11.5,30.5,17.8h-17.3c-10.6-6.5-21-12.7-31.1-18.6
					c-35.8-21.9-65.2-40.3-87.6-58.6c-49.6-44-9.9-63.1,44-79.2c1.8-0.5,3.6-1,5.4-1.6c26.4-7.8,55.8-14.4,81.9-20.3
					c24.7-5.8,47.6-10.8,65.8-16.5c6.8-2.2,12-4.2,16-6.5c2.7-1.7,3.8-3.2,2.7-5.2c-1.4-1.6-5.3-2.9-10.5-4.4
					c-8.3-2.2-17-3.8-26.9-5.5c-25.6-4.3-52.2-7.7-77.7-11c-26-3.4-49.9-6.5-70.6-10c-9.2-1.6-16-3-21.9-4.8
					c-0.3-0.1-0.6-0.2-0.9-0.3c-4.7-1.6-6.3-3.1-4.9-4.8c0.1-0.1,0.2-0.2,0.3-0.3c1.7-1.5,5.8-2.8,11.4-4.1c0.3-0.1,0.7-0.2,1.1-0.3
					c5.7-1.3,12.4-2.3,19.6-3.4c16.4-2.3,33-4.1,50-5.9C195.3,19.7,197.3,19.5,199.2,19.3"/>
				<path id="XMLID_30_" class="st4" d="M192,19.3h5.6c-1.7,0.2-3.3,0.4-4.9,0.5c-1,0.1-2.1,0.2-3.1,0.3c-16.1,1.7-31.5,3.4-47,5.6
					c-8.1,1.2-14.5,2.2-20.9,3.7c-6.4,1.5-10.1,2.7-12,4.5c-0.1,0.1-0.2,0.2-0.3,0.3c-1.4,1.8,1.5,3.2,6.1,4.9
					c0.3,0.1,0.7,0.2,1,0.3c5.3,1.6,12.7,3.1,21,4.5c1.2,0.2,2.4,0.4,3.6,0.6c18.9,3.2,43.3,6.3,67.2,9.4c25.5,3.3,52,6.7,77.6,11
					c9.8,1.7,18.4,3.2,26.6,5.4c5,1.4,8.8,2.6,10.1,4.2c1.1,1.9,0,3.3-2.7,5c-4,2.3-9.1,4.3-15.9,6.4c-18.3,5.6-41,10.6-65.7,16.3
					c-1.7,0.4-3.4,0.8-5.1,1.2c-27.4,6.2-54.6,12.5-82.4,20.8c-0.9,0.3-1.8,0.5-2.7,0.8c-59.3,17.4-89.2,37.3-42.7,79.4
					c1.3,1.1,2.5,2.2,3.8,3.3c20.7,17.1,50.9,35.3,83.6,55.8c9.4,5.6,19,11.4,28.9,17.5h-17.4c-7.7-4.9-15.2-9.5-22.4-13.9
					c-35.6-23.1-64.9-41.6-86.8-60.7c-1.2-1.1-2.3-2.2-3.4-3.4C45.6,160.4,90.7,139,145,123c29.9-8.7,59.3-15.3,88.4-21.8
					c24.4-5.6,47.1-10.6,65.2-16c6.5-2.1,11.5-3.9,15.4-6.1c2.4-1.6,3.7-2.9,2.8-4.6c-1-1.4-4.6-2.5-8.9-3.6
					c-7.7-2.1-16.1-3.7-25.5-5.3c-1.4-0.2-2.8-0.4-4.2-0.7c-23.1-3.9-49.6-7.3-72.9-10.3c-26.3-3.5-50.5-6.6-71.5-10.2
					c-9.5-1.7-16.5-3.1-22.5-5c-0.3-0.1-0.7-0.2-1-0.4c-5.1-1.8-6.7-3.3-5.1-5.2c0.1-0.1,0.2-0.2,0.4-0.3c1.9-1.6,6.4-3,12.5-4.4
					c6.6-1.5,13.2-2.5,21.5-3.7c16.7-2.3,33.4-4.1,50.6-5.9L192,19.3z"/>
				<path id="XMLID_29_" class="st4" d="M184.2,19.3h5.8l-0.6,0.1c-1,0.1-2.1,0.2-3.1,0.4c-16.3,1.7-31.7,3.4-47.5,5.6
					c-8.4,1.2-15.1,2.3-21.7,3.8c-6.9,1.6-11,2.9-13.1,4.8c-0.1,0.1-0.2,0.3-0.3,0.4c-1.6,1.9,1.4,3.6,6.4,5.3
					c6,1.9,13.1,3.4,22.6,5.1c21,3.6,45.2,6.8,71.7,10.3c1.7,0.2,3.4,0.4,5.1,0.7c23.8,3.1,48.1,6.3,71.9,10.3
					c0.6,0.1,1.3,0.3,2,0.3c8.5,1.4,16.3,3,23.1,4.8c4,1.1,7.5,2.2,8.5,3.5c0.9,1.6-0.4,2.9-2.7,4.4c-3.8,2.1-8.8,4-15.2,6
					c-18.1,5.4-40.7,10.4-65.1,15.9c-1.7,0.4-3.4,0.8-5.1,1.2c-27.8,6.1-55.3,12.4-83.6,20.6c-1,0.3-1.8,0.6-2.7,0.9
					c-56.6,16.4-96.8,37.7-48.9,83.7c1.2,1.1,2.5,2.2,3.8,3.3c20.2,17.9,50.3,36.2,82.9,57.8c2.3,1.5,4.6,2.9,6.9,4.3
					c4.4,2.8,8.8,5.6,13.3,8.5h-17.4c-4.8-3.2-9.5-6.2-14.1-9.2c-2.3-1.5-4.6-2.9-6.8-4.4c-32.7-22.1-59.2-39.8-79.3-58.3
					c-48.4-48.5-6.3-69.3,56.5-87.7c30.4-8.7,60-15.3,89.6-21.7c24.1-5.3,46.6-10.3,64.6-15.6c6.2-1.9,11.1-3.7,14.7-5.7
					c2.1-1.3,3.4-2.4,2.6-3.9c-0.7-1.1-3.9-2-7.2-2.9c-7.2-1.9-15.3-3.5-24.1-5c-1.4-0.2-2.7-0.4-4-0.7c-23-4-49.3-7.3-72.6-10.4
					c-26.8-3.5-51-6.7-72.3-10.4c-9.8-1.8-17-3.3-23.1-5.2c-0.3-0.1-0.7-0.3-1-0.4c-14.4-5.2,1-9,8.7-10.7c0.4-0.1,0.8-0.2,1.2-0.3
					c6.2-1.3,13.3-2.5,21.1-3.5C152,22.8,167.8,21.1,184.2,19.3"/>
				<path id="XMLID_28_" class="st4" d="M176.8,19.3h5.6c-16.1,1.7-31.6,3.4-47.4,5.6c-0.5,0.1-1,0.2-1.5,0.2
					c-8.1,1.1-14.6,2.2-21,3.6c-0.4,0.1-0.8,0.2-1.2,0.3c-9.6,2.1-21.5,5.7-6.7,11c0.3,0.1,0.7,0.2,1,0.4c5.6,1.8,13.3,3.4,22.2,4.9
					c21.3,3.7,45.6,7,72.5,10.5c25.1,3.4,51.4,6.8,76.4,11.1c8.7,1.5,16.7,3.1,23.7,5c3,0.8,6.1,1.7,6.8,2.7
					c0.7,1.4-0.6,2.5-2.6,3.8c-3.6,2-8.5,3.7-14.6,5.6c-18,5.2-40.4,10.2-64.4,15.5c-29.7,6.5-59.3,13.1-89.8,21.7
					C76.1,138.5,28.1,159,77.6,209.8c1.2,1.1,2.5,2.3,3.8,3.4c19.5,18.6,49.5,37.4,82,59.8c4,2.7,8.1,5.4,12.2,8.1h-17
					c-2.2-1.6-4.4-3.1-6.6-4.6c-35.4-24.7-64.3-44.1-85.1-64.7c-1.2-1.1-2.4-2.3-3.5-3.5c-46.3-49.6,10.6-72.2,66.8-88.4
					c2-0.6,3.9-1.1,5.9-1.7c27.6-7.6,57.6-14,84.7-19.9c23.7-5.1,46.1-10,63.9-15.1c3.3-1,18.2-5.1,16.6-8.6
					c-1.5-2.1-24.5-6.3-28.3-7c-24.8-4.3-50.9-7.7-76-11.1c-1.7-0.3-3.4-0.5-5.1-0.7c-25.3-3.3-47.7-6.4-67.9-10
					c-0.6-0.1-1.2-0.2-1.8-0.3c-9.4-1.7-16.2-3.3-22-5.2c-0.4-0.1-0.8-0.2-1.1-0.4c-15-5.6,1.7-9.6,9.8-11.4
					c7.3-1.6,14.3-2.7,23.3-3.9c1.1-0.2,2.1-0.3,3.2-0.4C148.5,22.3,162.9,20.8,176.8,19.3"/>
				<path id="XMLID_27_" class="st4" d="M169.4,19.3h5.8c-14.8,1.6-29.3,3.2-43.9,5.1c-0.5,0.1-1.1,0.2-1.6,0.2
					c-8.3,1.2-15.1,2.3-21.9,3.8c-9.5,2.1-25.3,6.1-9,12c0.4,0.1,0.8,0.3,1.1,0.4c5.7,1.9,13.6,3.5,22.9,5.2
					c1.2,0.2,2.5,0.4,3.8,0.7c19.7,3.5,44.6,6.8,69.4,10.1c25,3.4,51.1,6.8,75.9,11.1c24.1,4.3,41.4,5.6,11.2,15.1
					c-0.9,0.3-1.8,0.5-2.7,0.8c-16.6,4.7-39.2,9.5-61.1,14.2c-30,6.5-59.9,13-90.9,21.6c-1,0.3-2,0.6-2.9,0.9
					c-61.3,17.7-110.1,40-62,92.1c1.2,1.1,2.5,2.3,3.8,3.5c19,19.4,48.6,39.1,81.1,61.7c1.8,1.2,3.6,2.3,5.4,3.5h-17.4
					c-35.3-25-63.7-45.3-83.8-66.7c-49.4-55.6,7.1-78.1,70.5-96.2c2-0.6,4-1.2,6-1.7c27.9-7.5,58.1-13.9,85.5-19.8
					c1.7-0.4,3.4-0.7,5.1-1.1c21.6-4.6,41.8-8.9,58.3-13.7c28.9-8.5,12-9.5-9.6-13.5c-24.6-4.2-50.6-7.7-75.5-11.1
					c-1.7-0.2-3.5-0.4-5.1-0.7c-25.6-3.4-48.1-6.6-68.7-10.2c-0.6-0.1-1.2-0.2-1.9-0.4c-9.6-1.7-16.6-3.4-22.6-5.4
					c-16.8-6.3,0-10.4,9.9-12.6c7.5-1.6,14.9-2.7,24.1-4.1C142.1,22.3,155.6,20.8,169.4,19.3"/>
				<path id="XMLID_26_" class="st4" d="M162,19.3h5.7c-13.5,1.5-26.8,2.9-40.2,4.7c-0.5,0.1-1.1,0.2-1.6,0.2
					c-8.7,1.2-15.8,2.4-22.8,3.8c-0.5,0.1-0.9,0.2-1.4,0.3c-10.4,2.3-25,6.4-8.8,12.5c6.6,2.2,14.1,3.9,24.6,5.8
					c21.9,3.9,46.4,7.2,74,10.9c1.7,0.3,3.4,0.5,5.1,0.7c23.3,3.1,47.3,6.4,70.2,10.4c21.6,4,37.2,4.9,9.2,13.1
					c-17.7,5-39.9,9.7-63.3,14.7c-30.3,6.5-60.4,12.9-91.7,21.4c-64.6,18.6-121.1,40.3-72.3,97.2c19.8,21.2,47.4,41.5,82,66h-17.5
					c-32.2-23.7-57.5-43.4-75.7-64c-49.3-58.8,12.5-81.6,78-100.5c2-0.5,4-1,6.1-1.6c28.3-7.7,58.7-13.8,86.4-19.7
					c23.2-4.9,45.2-9.4,62.8-14.4c25.6-7.3,13-7.7-7.8-11.5c-24.4-4.3-50.3-7.8-74.9-11.2c-27.8-3.8-52.4-7.2-74.6-11.1
					c-10.8-2-18.5-3.7-25.1-6c-0.4-0.1-0.8-0.3-1.1-0.4c-16.8-6.4,4.3-11.2,12.2-12.9c7.8-1.7,15.4-2.8,25-4.2
					C137.2,22,149.5,20.6,162,19.3"/>
				<path id="XMLID_25_" class="st4" d="M274.9,19.3c-13.2,2.1-27.8,3.9-44.2,5.9c-14.6,1.8-30.3,3.6-44.2,5.8
					c-18.7,3.1-18.1,3.2,0.9,6c0.9,0.1,1.8,0.3,2.7,0.4c17,2.6,39.1,5,59.6,7.5c27.8,3.2,55.4,6.4,83.5,10.7
					c0.8,0.1,1.7,0.3,2.6,0.3c14.4,2.2,26.4,4.4,38.8,7.2c16.2,3.8,25.8,7.1,32.5,11.9c0.3,0.3,0.6,0.6,1,0.8
					c4.7,4,3.8,7.7,0.3,11.7c-4.3,4.2-10.4,7.4-19.8,11.3c-1.1,0.4-2.3,0.9-3.4,1.4c-17.5,6.8-41.5,13.6-67,20.7
					c-24.4,6.8-51,14.2-75.1,23.1c-31.2,12.9-34.6,16.2-1.7,34.8c1.2,0.7,2.4,1.4,3.6,2c22.3,12.1,53.4,25.3,85,38.3
					c2.5,1.1,5.1,2.2,7.7,3.4c40.4,17.4,82,35.7,127.9,58.5h-16.5c-45.8-23.1-87.4-41.6-127.4-59.2c-34.3-14.5-65.1-28.1-89-41.3
					c-1.1-0.7-2.2-1.3-3.3-2.1c-32.6-18.8-23.5-24,6.6-36c1.3-0.4,2.6-0.9,3.9-1.3c22.3-8.1,49.3-15.3,72.1-21.7
					c27.8-7.6,51.2-14.2,70.1-21.6c0.5-0.2,1.1-0.4,1.7-0.7c8.6-3.4,14.1-6.6,18-10.2c0.2-0.2,0.5-0.5,0.7-0.8
					c3.6-4,3.1-7.3-1.4-11.3c-6.1-4.6-15.3-7.7-30.7-11.4c-13-3-25.2-5.1-40.3-7.4c-1.8-0.3-3.5-0.5-5.2-0.8
					c-25.3-3.8-52.9-6.9-78-9.9c-22.3-2.6-44.3-5.1-62.8-8c-20.6-3-20.9-3.6-0.8-6.9c14-2.2,29.8-4,44.6-5.8c1-0.1,2-0.3,3.1-0.4
					c14.2-1.7,26.9-3.3,38.5-5.1H274.9z"/>
				<path id="XMLID_24_" class="st5" d="M217.9,19.3c-5.6,0.7-13.2,1.5-13.2,1.5c0.9,0.1,2.6,0.4,2.6,0.4c5.5-0.6,11-1.2,16.1-1.8
					H217.9z"/>
				<path id="XMLID_23_" class="st5" d="M190.8,22.3c-5.7,0.7-11.5,1.3-17.2,2c0.9,0.1,2.6,0.4,2.6,0.4c5.8-0.7,11.5-1.3,17.1-2
					C192.5,22.6,190.8,22.3,190.8,22.3"/>
				<path id="XMLID_22_" class="st5" d="M160.4,26c-2.4,0.4-4.8,0.7-7.1,1c-3,0.4-5.9,0.9-8.8,1.4c1.1,0.1,3.3,0.4,3.3,0.4
					c2.8-0.5,5.5-0.9,8.4-1.4c2.3-0.3,4.6-0.7,7-1C162.3,26.2,160.4,26,160.4,26"/>
				<path id="XMLID_21_" class="st5" d="M133.4,30.6c-4.3,1.2-6.9,2.1-8,3.3c0,0,0,0,0,0.1c1.5,0,4.4,0,4.4,0c0,0,0,0,0,0
					c1-1.2,3.4-2,7.4-3.1C135.9,30.8,133.4,30.6,133.4,30.6"/>
				<path id="XMLID_20_" class="st5" d="M127.8,36.9c0.8,0.4,1.8,0.7,2.9,1c2.7,0.8,5.6,1.5,9.2,2.3c1.3-0.2,3.8-0.4,3.8-0.4
					c-3.5-0.7-6.3-1.4-9-2.2c-1-0.3-1.9-0.6-2.7-0.9C130.7,36.7,127.8,36.9,127.8,36.9"/>
				<path id="XMLID_19_" class="st5" d="M153.6,42.6c5.8,0.9,11.8,1.8,18.2,2.7c1.1-0.2,3.3-0.6,3.3-0.6c-6.4-0.9-12.3-1.7-18-2.7
					C155.9,42.3,153.6,42.6,153.6,42.6"/>
				<path id="XMLID_18_" class="st5" d="M188.8,47.6c7.5,1,23.2,3,23.2,3c1-0.2,3-0.6,3-0.6c-7.9-1-15.6-2-23.1-3
					C190.8,47.2,188.8,47.6,188.8,47.6"/>
				<path id="XMLID_17_" class="st5" d="M231.6,53.1c8.2,1,16.3,2.1,24.6,3.1c1-0.2,3-0.6,3-0.6c-8.3-1.1-24.7-3.2-24.7-3.2
					C233.6,52.7,231.6,53.1,231.6,53.1"/>
				<path id="XMLID_16_" class="st5" d="M275.8,59c7.7,1.1,15.1,2.2,22.6,3.4l0.2,0c1.1-0.2,3.4-0.7,3.4-0.7l-0.2,0
					c-7.6-1.2-15.1-2.3-22.9-3.4C277.9,58.6,275.8,59,275.8,59"/>
				<path id="XMLID_15_" class="st5" d="M318.3,66.1c3.7,0.7,6.9,1.5,10.3,2.4c3.4,0.9,6.1,1.7,8.7,2.7c1.7-0.1,5.1-0.3,5.1-0.3
					c-2.9-1.1-5.8-2-9.4-2.9c-3.5-0.9-6.9-1.6-10.9-2.4C320.8,65.7,318.3,66.1,318.3,66.1"/>
				<path id="XMLID_14_" class="st5" d="M344.3,75.8c0.7,2.1-0.5,3.7-3.2,5.7c-0.3,0.2-0.6,0.4-1,0.6c2,0.2,6,0.6,6,0.6
					c0.1,0,0.9-0.7,0.9-0.7c2.9-2.1,4-3.8,3.2-6.1C348.3,75.9,344.3,75.8,344.3,75.8"/>
				<path id="XMLID_13_" class="st5" d="M329.8,87.1c-1.7,0.7-3.7,1.2-5.6,1.9c-4.1,1.3-8.4,2.7-12.9,4c1.8,0.3,5.5,1,5.5,1
					c4.7-1.3,9-2.7,13.1-4.1c2-0.7,3.8-1.4,5.6-2C333.6,87.6,329.8,87.1,329.8,87.1"/>
				<path id="XMLID_12_" class="st5" d="M292.9,97.8c-8.3,2.2-17.1,4.4-26.3,6.5c1.8,0.4,5.3,1.2,5.3,1.2c9.2-2.2,18-4.3,26.4-6.5
					C296.5,98.5,292.9,97.8,292.9,97.8"/>
				<path id="XMLID_11_" class="st5" d="M243.3,110c-9.9,2.4-19.9,4.8-30.2,7.4c1.8,0.4,5.5,1.4,5.5,1.4c10.1-2.6,20.1-5,29.9-7.4
					C246.8,110.8,243.3,110,243.3,110"/>
				<path id="XMLID_10_" class="st5" d="M188.7,124c-5.5,1.6-11,3.1-16.4,4.8c-4.6,1.5-9,3.1-13.4,4.7c2.1,0.4,6.5,1.3,6.5,1.3
					c4.2-1.6,8.5-3.1,13-4.6c5.3-1.7,10.6-3.2,16.1-4.8C192.6,124.9,188.7,124,188.7,124"/>
				<path id="XMLID_9_" class="st5" d="M137.1,142.5c-9.3,5-14.9,9.2-18.2,14.7c3,0,9.1,0.1,9.1,0.1c2.8-5.2,8.1-9,16.6-13.8
					C142.1,143.2,137.1,142.5,137.1,142.5"/>
				<path id="XMLID_8_" class="st5" d="M118,170.5c2.4,6.1,6.5,11.8,13.2,18.2c3.3-0.5,9.8-1.5,9.8-1.5
					c-6.7-6.2-10.9-11.6-13.4-17.4C124.5,170,118,170.5,118,170.5"/>
				<path id="XMLID_7_" class="st5" d="M151,204.2c9.5,6.6,20.1,12.9,31.8,19.8c3.3-0.9,9.9-2.7,9.9-2.7
					c-11.7-6.5-22.3-12.7-31.9-19.2C157.5,202.8,151,204.2,151,204.2"/>
				<path id="XMLID_6_" class="st5" d="M215.1,242.5c1.3,0.7,15.6,8.4,15.6,8.4c0.1-0.1,31,17.7,30.9,17.7
					c3.5-1.1,10.3-3.5,10.3-3.5c-2.7-1.5-31.3-17.6-31.3-17.6l-15.7-8C221.8,240.5,215.1,242.5,215.1,242.5"/>
				<path id="XMLID_5_" class="st5" d="M280.8,19.3L280.8,19.3c-14,2.3-29.4,4.2-46.9,6.4c-14.3,1.7-29.9,3.6-43.7,5.8
					c-16.5,2.8-15.7,2.5,0.9,5.1c18.2,2.7,39.7,5.1,61.6,7.7c27.9,3.2,55.6,6.4,84,10.7c16,2.3,28.7,4.6,42.7,7.6
					c17.1,4.1,27.5,7.5,34.6,12.6c5.7,4.8,5.9,8.4,1.8,13.2c-4.2,4.3-10.5,7.7-19.9,11.8c-19.2,7.6-42.6,14.6-70.6,22.7
					c-1.7,0.5-3.4,1-5,1.5c-22.7,6.3-47,13.4-69,21.8c-28.5,11.8-30.7,14.5,0.1,30.9c23.9,12.9,54.6,25.5,88.3,39.4
					c2.5,1,5.1,2.1,7.7,3.1c43.7,18.5,88.3,37.5,137.9,61.8h-14.7c-49.9-24.8-94.9-43.9-138.1-62.6c-2.5-1-5-2-7.4-3
					c-31.2-13.1-59-25-81.2-37.1c-1.1-0.7-2.2-1.3-3.2-1.9c-30.6-16.8-22.9-20.8,4.4-32c23.9-8.9,50.5-16.3,74.8-23.1
					c28.1-7.9,51.3-14.7,70.5-22.3c0.5-0.2,1.1-0.5,1.6-0.7c8.6-3.5,14.3-6.9,18.2-10.7c4-4.6,4-8-1.3-12.7
					c-0.4-0.3-0.8-0.6-1.2-0.9c-6-4.3-17.3-7.8-31.7-11.2c-0.9-0.2-1.7-0.4-2.6-0.6c-12-2.6-25.2-4.8-39.2-6.9
					c-28.2-4.2-55.8-7.4-83.6-10.7c-22-2.6-43.7-5.1-62.1-7.8c-17.9-2.7-19.4-2.8-0.9-5.8c13.9-2.2,29.6-4.1,44.1-5.8
					c1-0.1,2.1-0.3,3.1-0.4c15.4-1.9,29.1-3.6,41.5-5.6H280.8z"/>
				<path id="XMLID_4_" class="st5" d="M160.5,19.3c-12.2,1.3-24.3,2.7-36.5,4.3c-9.7,1.3-17.3,2.5-25.2,4.2
					c-10,2.2-29.3,6.8-11.4,13.5c6.7,2.3,14.5,4,25.3,6.1c1.3,0.3,2.6,0.5,3.9,0.7c20.3,3.6,45.4,7,70.8,10.5
					c24.6,3.3,50.5,6.8,74.8,11.1c20.3,3.7,32.5,4,7.5,11.1c-0.9,0.3-1.8,0.5-2.6,0.7C250.9,86,228.5,90.5,207,95
					c-1.7,0.4-3.5,0.8-5.2,1.1c-29.1,6.2-57.5,12.2-87.5,20.2c-70.3,19.9-127.7,43-79.5,101.2c1.2,1.3,2.4,2.5,3.5,3.9
					c16.2,18.9,41.3,38.5,70,59.7H92.9c-29.1-22.4-51.9-41.7-68.4-61.7c-47.5-59.7,13.2-84.2,85-104.1c2.1-0.5,4.2-1.1,6.3-1.6
					c28.6-7.6,59.2-13.8,87.1-19.6c1.7-0.3,3.4-0.7,5.1-1c21.2-4.4,41-8.5,57.2-13c22.9-6.3,13.1-6.2-6.3-9.8
					c-1.2-0.2-2.5-0.4-3.6-0.7c-22-3.9-48.2-7.4-70.7-10.5c-1.7-0.3-3.4-0.5-5.1-0.7c-26.3-3.6-49.3-6.9-70.2-10.6
					c-0.6-0.1-1.3-0.2-1.9-0.4c-10.1-2-17.5-3.7-23.7-5.9c-0.4-0.1-0.8-0.3-1.2-0.4c-17.3-6.7,5.4-11.8,13.4-13.6
					c0.5-0.1,1-0.2,1.5-0.3c7.2-1.5,15.3-2.7,24.3-3.9c1.1-0.1,2.2-0.3,3.3-0.4c9.7-1.3,20.2-2.5,30.6-3.6H160.5z"/>
			</g>
		</g>
	</g>
</g>
<g id="XMLID_202_">
	<path id="XMLID_203_" class="st6" d="M494.6,114.2c5.6-1,13.6-1.7,24.7-1.7c11.3,0,19.3,2.2,24.7,6.5c5.3,4.1,8.6,10.8,8.6,18.7
		c0,7.9-2.5,14.8-7.4,19.2c-6.2,5.8-15.5,8.5-26.3,8.5c-2.4,0-4.6-0.1-6.2-0.5v29h-18.1V114.2z M512.7,150.9
		c1.6,0.4,3.4,0.5,6.1,0.5c9.7,0,15.7-4.9,15.7-13.1c0-7.4-5.2-11.9-14.4-11.9c-3.6,0-6.1,0.2-7.4,0.6V150.9z"/>
	<path id="XMLID_206_" class="st6" d="M576.7,113.1V194h-18.2v-80.9H576.7z"/>
	<path id="XMLID_208_" class="st6" d="M660.6,152.7c0,26.6-16,42.6-39.7,42.6c-23.9,0-38.1-18.1-38.1-41.3
		c0-24.2,15.6-42.4,39.4-42.4C647,111.6,660.6,130.2,660.6,152.7z M602.1,153.6c0,16,7.4,27.1,19.7,27.1c12.4,0,19.4-11.8,19.4-27.5
		c0-14.6-6.8-27.1-19.4-27.1C609.3,126.2,602.1,137.9,602.1,153.6z"/>
	<path id="XMLID_211_" class="st6" d="M666.6,194v-80.9H688l16.8,29.7c4.8,8.5,9.5,18.6,13.2,27.7h0.2c-1.1-10.7-1.4-21.6-1.4-33.9
		v-23.5h16.8V194h-19.2l-17.3-31.2c-4.8-8.6-10.2-19.1-14-28.6h-0.5c0.6,10.8,0.8,22.2,0.8,35.4V194H666.6z"/>
	<path id="XMLID_213_" class="st6" d="M791.6,159.8h-29.8V179H795v15h-51.5v-80.9h49.8v15h-31.6v16.8h29.8V159.8z"/>
	<path id="XMLID_215_" class="st6" d="M849.7,159.8h-29.8V179h33.3v15h-51.5v-80.9h49.8v15h-31.6v16.8h29.8V159.8z"/>
	<path id="XMLID_217_" class="st6" d="M859.6,114.2c5.9-1,14.5-1.7,24.4-1.7c12,0,20.4,1.8,26.2,6.4c4.9,3.8,7.6,9.6,7.6,17
		c0,10.2-7.3,17.3-14.3,19.8v0.4c5.6,2.3,8.8,7.6,10.8,15c2.5,9.2,4.9,19.8,6.5,22.9H902c-1.2-2.4-3.2-8.9-5.5-18.8
		c-2.3-10.2-5.8-12.8-13.3-13h-5.4V194h-18.1V114.2z M877.8,149h7.2c9.1,0,14.5-4.6,14.5-11.6c0-7.3-5-11.2-13.4-11.2
		c-4.4,0-7,0.2-8.3,0.6V149z"/>
	<path id="XMLID_220_" class="st7" d="M496.3,199.9c7.1-1,17.6-1.7,29.5-1.7c14.5,0,24.7,1.8,31.7,6.4c6,3.8,9.2,9.6,9.2,17
		c0,10.2-8.9,17.3-17.3,19.8v0.4c6.8,2.3,10.6,7.6,13.1,15c3,9.2,6,19.8,7.8,22.9h-22.7c-1.5-2.4-3.9-8.9-6.7-18.8
		c-2.8-10.2-7-12.8-16.1-13h-6.5v31.8h-21.9V199.9z M518.3,234.8h8.7c11,0,17.6-4.6,17.6-11.6c0-7.3-6.1-11.2-16.3-11.2
		c-5.4,0-8.4,0.2-10,0.6V234.8z"/>
	<path id="XMLID_223_" class="st7" d="M688.9,238.5c0,26.6-19.3,42.6-48.1,42.6c-28.9,0-46-18.1-46-41.3c0-24.2,18.9-42.4,47.6-42.4
		C672.5,197.4,688.9,216,688.9,238.5z M618.2,239.4c0,16,9,27.1,23.8,27.1c15,0,23.5-11.8,23.5-27.5c0-14.6-8.3-27.1-23.5-27.1
		C626.9,211.9,618.2,223.7,618.2,239.4z"/>
	<path id="XMLID_226_" class="st7" d="M741.4,259l-7,20.8h-22.8l29.8-80.9h29l30.5,80.9h-24l-7.6-20.8H741.4z M766.2,245.3
		l-6.1-17.2c-1.7-4.8-3.5-10.8-4.9-15.6h-0.3c-1.5,4.8-2.9,10.9-4.5,15.6l-5.8,17.2H766.2z"/>
	<path id="XMLID_229_" class="st7" d="M831.3,200.1c8.1-1.1,18.7-1.8,29.8-1.8c18.7,0,30.9,2.9,40.2,8.6
		c10.2,6.2,16.6,16.2,16.6,30.5c0,15.5-6.8,26.2-16.1,32.8c-10.3,7.1-26.1,10.4-45.3,10.4c-11.5,0-19.8-0.6-25.1-1.2V200.1z
		 M853.4,266c1.9,0.4,5.1,0.4,7.7,0.4c20.2,0.1,33.4-9,33.4-28.3c0-16.8-11.9-25.7-31.1-25.7c-4.8,0-8.1,0.4-10,0.7V266z"/>
</g>
</svg>
